<svg width="81" height="77" viewBox="0 0 81 77" fill="none" xmlns="http://www.w3.org/2000/svg">
<path d="M49.8124 13.9374C48.6356 11.4161 46.9501 9.15113 44.8073 7.20306C42.6644 5.25965 40.1618 3.73102 37.3818 2.66378C34.5041 1.55925 31.4414 1 28.2914 1C24.1187 1 20.0231 2.01132 16.4466 3.9221C13.0139 5.75832 10.1413 8.36817 8.12695 11.486L8.47125 11.6678C12.5822 5.30626 20.1619 1.36352 28.2914 1.36352C40.9532 1.36352 51.2512 10.7031 51.2512 22.1864C51.2512 33.6278 41.0251 42.944 28.425 43.0093V43.3728C31.5339 43.3588 34.5452 42.7996 37.3869 41.709C40.167 40.6418 42.6644 39.1132 44.8124 37.1698C46.9552 35.2263 48.6408 32.9567 49.8175 30.4354C51.0354 27.8255 51.652 25.0479 51.652 22.1911C51.652 19.3342 51.0303 16.5519 49.8124 13.9374Z" fill="#7366FF"/>
<path d="M6.32751 22.1866C6.32751 19.162 7.08291 16.1793 8.53203 13.4809C8.80438 12.9729 8.60397 12.3624 8.0644 12.0828L8.03871 12.0688C7.44262 11.7565 6.68209 11.9662 6.3789 12.5302C5.716 13.7652 5.18157 15.0515 4.78589 16.3704C4.22063 18.2578 3.93286 20.2152 3.93286 22.1866C3.93286 25.1693 4.5752 28.0634 5.84961 30.7851C7.07777 33.4136 8.83008 35.7765 11.0706 37.8084C13.3059 39.8357 15.9113 41.4296 18.8146 42.5435C21.2864 43.4895 23.8866 44.0534 26.5587 44.2259C27.2473 44.2678 27.828 43.7785 27.828 43.154V43.1307C27.828 42.5621 27.3449 42.1007 26.718 42.0588C15.3357 41.3178 6.32751 32.6866 6.32751 22.1866Z" fill="#7366FF"/>
<g filter="url(#filter0_d_68_1862)">
<path d="M28.2938 40.2878C39.3168 40.2878 48.2527 32.1837 48.2527 22.1866C48.2527 12.1896 39.3168 4.08545 28.2938 4.08545C17.2708 4.08545 8.33496 12.1896 8.33496 22.1866C8.33496 32.1837 17.2708 40.2878 28.2938 40.2878Z" fill="url(#paint0_linear_68_1862)"/>
</g>
<path d="M28.294 39.6959C38.9566 39.6959 47.6003 31.8567 47.6003 22.1866C47.6003 12.5164 38.9566 4.67725 28.294 4.67725C17.6315 4.67725 8.98779 12.5164 8.98779 22.1866C8.98779 31.8567 17.6315 39.6959 28.294 39.6959Z" fill="white"/>
<g clip-path="url(#clip0_68_1862)">
<path d="M36.551 22.1562V23.8438C36.5508 24.0675 36.4585 24.2819 36.2944 24.4401C36.1302 24.5983 35.9077 24.6873 35.6756 24.6875H34.4278C34.2713 25.2612 34.0344 25.8118 33.7237 26.3239L34.607 27.1777C34.7699 27.336 34.8613 27.55 34.8613 27.7731C34.8612 27.9961 34.7697 28.2101 34.6067 28.3683L33.3665 29.5635C33.2001 29.7169 32.9788 29.8025 32.7486 29.8025C32.5184 29.8025 32.2971 29.7169 32.1308 29.5635L31.2454 28.7125C30.714 29.0119 30.1428 29.2402 29.5475 29.3912V30.5938C29.5473 30.8175 29.455 31.0319 29.2908 31.1901C29.1267 31.3483 28.9042 31.4373 28.6721 31.4375H26.9212C26.6891 31.4373 26.4666 31.3483 26.3024 31.1901C26.1383 31.0319 26.046 30.8175 26.0458 30.5938V29.3912C25.6842 29.2989 25.331 29.1783 24.9898 29.0307C24.947 29.0117 24.9096 28.9831 24.8806 28.9473C24.8517 28.9115 24.8321 28.8695 24.8236 28.8249C24.815 28.7803 24.8177 28.7343 24.8314 28.6909C24.8452 28.6475 24.8695 28.6079 24.9024 28.5754L26.1427 27.3772C26.1799 27.3413 26.2266 27.3157 26.2777 27.3033C26.3289 27.2908 26.3825 27.2919 26.433 27.3065C26.8754 27.4346 27.3348 27.4998 27.7966 27.5C28.7201 27.5 29.6228 27.2361 30.3906 26.7416C31.1584 26.2471 31.7569 25.5443 32.1102 24.7221C32.4636 23.8998 32.5561 22.995 32.3759 22.1221C32.1958 21.2492 31.7511 20.4474 31.0981 19.818C30.4452 19.1887 29.6132 18.7601 28.7075 18.5865C27.8018 18.4128 26.863 18.5019 26.0099 18.8425C25.1567 19.1831 24.4275 19.7599 23.9145 20.4999C23.4015 21.24 23.1276 22.11 23.1276 23C23.1281 23.4443 23.1957 23.8861 23.3284 24.3116C23.3435 24.3602 23.3447 24.4119 23.3318 24.4611C23.3189 24.5103 23.2924 24.5552 23.2551 24.5911L22.012 25.7892C21.9783 25.821 21.9372 25.8446 21.8922 25.8579C21.8471 25.8712 21.7994 25.8738 21.753 25.8656C21.7066 25.8574 21.663 25.8385 21.6258 25.8106C21.5886 25.7827 21.559 25.7465 21.5393 25.7052C21.3863 25.3763 21.2612 25.036 21.1654 24.6875H19.9177C19.6856 24.6873 19.463 24.5983 19.2989 24.4401C19.1348 24.2819 19.0425 24.0675 19.0422 23.8438V22.1562C19.0425 21.9325 19.1348 21.7181 19.2989 21.5599C19.463 21.4017 19.6856 21.3127 19.9177 21.3125H21.1654C21.3221 20.7387 21.559 20.1882 21.8696 19.6759L20.9863 18.8223C20.8234 18.664 20.7319 18.45 20.732 18.2269C20.7321 18.0039 20.8236 17.7899 20.9866 17.6317L22.2268 16.4365C22.3932 16.2831 22.6145 16.1975 22.8447 16.1975C23.0748 16.1975 23.2961 16.2831 23.4625 16.4365L24.3479 17.2875C24.8793 16.9881 25.4505 16.7598 26.0458 16.6088V15.4062C26.046 15.1825 26.1383 14.9681 26.3024 14.8099C26.4666 14.6517 26.6891 14.5627 26.9212 14.5625H28.6721C28.9042 14.5627 29.1267 14.6517 29.2908 14.8099C29.455 14.9681 29.5473 15.1825 29.5475 15.4062V16.6088C30.1428 16.7598 30.714 16.9881 31.2454 17.2875L32.1312 16.4362C32.2976 16.283 32.5189 16.1976 32.749 16.1976C32.9791 16.1977 33.2003 16.2832 33.3666 16.4365L34.6067 17.6318C34.7698 17.7901 34.8613 18.0042 34.8613 18.2273C34.8613 18.4504 34.7698 18.6644 34.6067 18.8227L33.7237 19.6759C34.0343 20.1882 34.2712 20.7387 34.4278 21.3125H35.6756C35.9077 21.3127 36.1302 21.4017 36.2944 21.5599C36.4585 21.7181 36.5508 21.9325 36.551 22.1562ZM31.1207 21.5645C31.1045 21.5194 31.0767 21.4791 31.0399 21.4471C31.0031 21.4152 30.9586 21.3927 30.9104 21.3818C30.8622 21.3709 30.812 21.3719 30.7643 21.3847C30.7166 21.3975 30.6731 21.4217 30.6377 21.455L29.3099 22.735L28.3813 22.4365L28.0718 21.5416L29.3996 20.2618C29.4342 20.2277 29.4594 20.1857 29.4727 20.1398C29.486 20.0938 29.487 20.0454 29.4757 19.9989C29.4643 19.9525 29.441 19.9096 29.4079 19.8741C29.3747 19.8387 29.3328 19.8119 29.2861 19.7963C28.7863 19.6337 28.2501 19.6049 27.7347 19.7129C27.2193 19.8209 26.744 20.0618 26.3595 20.4098C25.975 20.7578 25.6957 21.1998 25.5513 21.6888C25.407 22.1777 25.4031 22.6953 25.5401 23.1862L19.4952 29.0123C19.2216 29.276 19.0679 29.6337 19.0679 30.0066C19.0679 30.3796 19.2216 30.7372 19.4952 31.0009C19.7688 31.2647 20.1399 31.4128 20.5269 31.4128C20.9138 31.4128 21.2849 31.2647 21.5586 31.0009L27.6034 25.1749C28.1128 25.3069 28.6498 25.3031 29.1571 25.164C29.6645 25.0249 30.1231 24.7557 30.4842 24.3851C30.8452 24.0145 31.0951 23.5564 31.2072 23.0597C31.3193 22.5629 31.2894 22.0462 31.1207 21.5645Z" fill="#7366FF"/>
</g>
<defs>
<filter id="filter0_d_68_1862" x="0.334961" y="0.0854492" width="79.9177" height="76.2021" filterUnits="userSpaceOnUse" color-interpolation-filters="sRGB">
<feFlood flood-opacity="0" result="BackgroundImageFix"/>
<feColorMatrix in="SourceAlpha" type="matrix" values="0 0 0 0 0 0 0 0 0 0 0 0 0 0 0 0 0 0 127 0" result="hardAlpha"/>
<feOffset dx="12" dy="16"/>
<feGaussianBlur stdDeviation="10"/>
<feComposite in2="hardAlpha" operator="out"/>
<feColorMatrix type="matrix" values="0 0 0 0 0.839653 0 0 0 0 0.839653 0 0 0 0 0.891667 0 0 0 0.5 0"/>
<feBlend mode="normal" in2="BackgroundImageFix" result="effect1_dropShadow_68_1862"/>
<feBlend mode="normal" in="SourceGraphic" in2="effect1_dropShadow_68_1862" result="shape"/>
</filter>
<linearGradient id="paint0_linear_68_1862" x1="40.7173" y1="36.3512" x2="18.7693" y2="5.9267" gradientUnits="userSpaceOnUse">
<stop offset="2.4e-07" stop-color="#EBEBEB"/>
<stop offset="1" stop-color="#FAFAFA"/>
</linearGradient>
<clipPath id="clip0_68_1862">
<rect width="21.1498" height="19.6492" fill="white" transform="translate(17.2566 12.1343)"/>
</clipPath>
</defs>
</svg>
