<svg width="67" height="67" viewBox="0 0 67 67" fill="none" xmlns="http://www.w3.org/2000/svg">
<path d="M43.4758 13.5698C42.4389 11.1202 40.9537 8.91954 39.0655 7.02682C37.1773 5.13863 34.9722 3.65343 32.5225 2.61651C29.9868 1.54336 27.2881 1 24.5124 1C20.8356 1 17.2268 1.98258 14.0753 3.83908C11.0505 5.62313 8.51938 8.15883 6.74438 11.1881L7.04776 11.3647C10.6702 5.18391 17.3491 1.35319 24.5124 1.35319C35.6695 1.35319 44.7437 10.4274 44.7437 21.5845C44.7437 32.7008 35.7329 41.7523 24.6301 41.8157V42.1689C27.3696 42.1553 30.023 41.612 32.527 40.5524C34.9767 39.5155 37.1773 38.0303 39.0701 36.1421C40.9582 34.2539 42.4434 32.0488 43.4804 29.5991C44.5535 27.0634 45.0969 24.3647 45.0969 21.589C45.0969 18.8133 44.549 16.1101 43.4758 13.5698Z" fill="#FFAA05"/>
<path d="M5.15963 21.5845C5.15963 18.6458 5.82525 15.7478 7.10216 13.1261C7.34214 12.6325 7.16555 12.0394 6.6901 11.7677L6.66746 11.7541C6.14221 11.4507 5.47206 11.6545 5.20491 12.2024C4.62079 13.4023 4.14987 14.6521 3.80122 15.9335C3.30313 17.7673 3.04956 19.6691 3.04956 21.5845C3.04956 24.4824 3.61557 27.2943 4.73852 29.9387C5.82072 32.4925 7.36478 34.7882 9.33901 36.7625C11.3087 38.7322 13.6044 40.2808 16.1628 41.363C18.3407 42.2821 20.6319 42.83 22.9865 42.9976C23.5933 43.0383 24.1049 42.5629 24.1049 41.9561V41.9335C24.1049 41.3811 23.6793 40.9328 23.1269 40.892C13.0973 40.1721 5.15963 31.7861 5.15963 21.5845Z" fill="#FFAA05"/>
<g filter="url(#filter0_d_68_1846)">
<path d="M24.5124 39.1714C34.2254 39.1714 42.0993 31.2974 42.0993 21.5845C42.0993 11.8715 34.2254 3.99756 24.5124 3.99756C14.7995 3.99756 6.92554 11.8715 6.92554 21.5845C6.92554 31.2974 14.7995 39.1714 24.5124 39.1714Z" fill="url(#paint0_linear_68_1846)"/>
</g>
<path d="M24.0614 39.0237C33.4568 39.0237 41.0732 31.4072 41.0732 22.0118C41.0732 12.6165 33.4568 5 24.0614 5C14.666 5 7.04956 12.6165 7.04956 22.0118C7.04956 31.4072 14.666 39.0237 24.0614 39.0237Z" fill="white"/>
<path d="M17.7996 21.625C16.4211 21.625 15.2996 20.5038 15.2996 19.125C15.2996 17.7462 16.4211 16.625 17.7996 16.625C19.178 16.625 20.2996 17.7462 20.2996 19.125C20.2996 20.5038 19.178 21.625 17.7996 21.625ZM18.9058 22.0437C18.1932 22.319 17.4059 22.319 16.6933 22.0437C16.512 21.9747 16.3057 21.9998 16.1434 22.0999C15.2245 22.6815 14.6746 23.6685 14.6746 24.75V27.25C14.6746 27.5936 14.9559 27.875 15.2996 27.875H18.4246V24.75C18.4246 23.7814 18.6809 22.8378 19.1432 22.0126C19.0621 21.9998 18.9809 22.0126 18.9058 22.0437ZM30.2996 21.625C31.678 21.625 32.7996 20.5038 32.7996 19.125C32.7996 17.7462 31.678 16.625 30.2996 16.625C28.9211 16.625 27.7996 17.7462 27.7996 19.125C27.7996 20.5038 28.9211 21.625 30.2996 21.625ZM31.9557 22.0999C31.7934 21.9998 31.5871 21.9747 31.4058 22.0437C30.6932 22.319 29.9059 22.319 29.1933 22.0437C29.1182 22.0126 29.037 21.9998 28.9559 22.0126C29.4182 22.8378 29.6746 23.7814 29.6746 24.75V27.875H32.7996C33.1432 27.875 33.4246 27.5936 33.4246 27.25V24.75C33.4246 23.6685 32.8746 22.6815 31.9557 22.0999ZM24.0496 20.375C22.3265 20.375 20.9246 18.973 20.9246 17.25C20.9246 15.527 22.3265 14.125 24.0496 14.125C25.7726 14.125 27.1746 15.527 27.1746 17.25C27.1746 18.973 25.7726 20.375 24.0496 20.375ZM28.4246 24.75C28.4246 23.356 27.7559 22.0437 26.6307 21.2252C26.4434 21.0873 26.1934 21.069 25.9871 21.1685C25.5684 21.3815 25.1247 21.5127 24.6746 21.575V24.75C24.6746 25.0936 24.3932 25.375 24.0496 25.375C23.7059 25.375 23.4246 25.0936 23.4246 24.75V21.575C22.9744 21.5127 22.5307 21.3815 22.112 21.1685C21.9057 21.069 21.6558 21.0873 21.4684 21.2252C20.3432 22.0437 19.6746 23.356 19.6746 24.75V27.875H28.4246V24.75Z" fill="#FEC962"/>
<defs>
<filter id="filter0_d_68_1846" x="0.881092" y="0.975336" width="65.3961" height="65.3961" filterUnits="userSpaceOnUse" color-interpolation-filters="sRGB">
<feFlood flood-opacity="0" result="BackgroundImageFix"/>
<feColorMatrix in="SourceAlpha" type="matrix" values="0 0 0 0 0 0 0 0 0 0 0 0 0 0 0 0 0 0 127 0" result="hardAlpha"/>
<feOffset dx="9.06667" dy="12.0889"/>
<feGaussianBlur stdDeviation="7.55556"/>
<feComposite in2="hardAlpha" operator="out"/>
<feColorMatrix type="matrix" values="0 0 0 0 0.839653 0 0 0 0 0.839653 0 0 0 0 0.891667 0 0 0 0.5 0"/>
<feBlend mode="normal" in2="BackgroundImageFix" result="effect1_dropShadow_68_1846"/>
<feBlend mode="normal" in="SourceGraphic" in2="effect1_dropShadow_68_1846" result="shape"/>
</filter>
<linearGradient id="paint0_linear_68_1846" x1="35.4595" y1="35.3466" x2="13.5638" y2="7.81962" gradientUnits="userSpaceOnUse">
<stop offset="2.4e-07" stop-color="#EBEBEB"/>
<stop offset="1" stop-color="#FAFAFA"/>
</linearGradient>
</defs>
</svg>
