<svg width="81" height="77" viewBox="0 0 81 77" fill="none" xmlns="http://www.w3.org/2000/svg">
<path d="M49.8138 13.9374C48.6371 11.4161 46.9516 9.15113 44.8087 7.20306C42.6659 5.25965 40.1633 3.73102 37.3832 2.66378C34.5056 1.55925 31.4429 1 28.2928 1C24.1202 1 20.0246 2.01132 16.448 3.9221C13.0154 5.75832 10.1428 8.36817 8.12842 11.486L8.47271 11.6678C12.5837 5.30626 20.1633 1.36352 28.2928 1.36352C40.9547 1.36352 51.2527 10.7031 51.2527 22.1864C51.2527 33.6278 41.0266 42.944 28.4264 43.0093V43.3728C31.5354 43.3588 34.5467 42.7996 37.3884 41.709C40.1684 40.6418 42.6659 39.1132 44.8139 37.1698C46.9567 35.2263 48.6422 32.9567 49.819 30.4354C51.0369 27.8255 51.6535 25.0479 51.6535 22.1911C51.6535 19.3342 51.0317 16.5519 49.8138 13.9374Z" fill="#7366FF"/>
<path d="M6.32898 22.1866C6.32898 19.162 7.08437 16.1793 8.53349 13.4809C8.80585 12.9729 8.60544 12.3624 8.06587 12.0828L8.04018 12.0688C7.44408 11.7565 6.68355 11.9662 6.38036 12.5302C5.71747 13.7652 5.18304 15.0515 4.78736 16.3704C4.2221 18.2578 3.93433 20.2152 3.93433 22.1866C3.93433 25.1693 4.57667 28.0634 5.85107 30.7851C7.07923 33.4136 8.83154 35.7765 11.072 37.8084C13.3074 39.8357 15.9127 41.4296 18.8161 42.5435C21.2878 43.4895 23.888 44.0534 26.5602 44.2259C27.2488 44.2678 27.8294 43.7785 27.8294 43.154V43.1307C27.8294 42.5621 27.3464 42.1007 26.7195 42.0588C15.3372 41.3178 6.32898 32.6866 6.32898 22.1866Z" fill="#7366FF"/>
<g filter="url(#filter0_d_68_1907)">
<path d="M28.2953 40.2878C39.3182 40.2878 48.2541 32.1837 48.2541 22.1866C48.2541 12.1896 39.3182 4.08545 28.2953 4.08545C17.2723 4.08545 8.33643 12.1896 8.33643 22.1866C8.33643 32.1837 17.2723 40.2878 28.2953 40.2878Z" fill="url(#paint0_linear_68_1907)"/>
</g>
<path d="M28.2955 39.6959C38.958 39.6959 47.6017 31.8567 47.6017 22.1866C47.6017 12.5164 38.958 4.67725 28.2955 4.67725C17.633 4.67725 8.98926 12.5164 8.98926 22.1866C8.98926 31.8567 17.633 39.6959 28.2955 39.6959Z" fill="white"/>
<g clip-path="url(#clip0_68_1907)">
<g clip-path="url(#clip1_68_1907)">
<path d="M36.65 12H28.8359C27.4211 12 26.2744 13.1032 26.2744 14.4687V25.7656C26.2744 26.2448 26.8447 26.5251 27.2471 26.2343L29.6897 24.4687H36.65C38.0647 24.4687 39.2114 23.3655 39.2114 22V14.4687C39.2114 13.1052 38.0668 12 36.65 12ZM32.7429 21.6445C32.4074 21.6445 32.1349 21.382 32.1349 21.0585C32.1349 20.7352 32.4074 20.4726 32.7429 20.4726C33.0785 20.4726 33.3508 20.7352 33.3508 21.0585C33.3508 21.382 33.0785 21.6445 32.7429 21.6445ZM33.3508 19.0532V19.1758C33.3508 19.4994 33.0786 19.7617 32.7429 19.7617C32.4072 19.7617 32.1349 19.4994 32.1349 19.1758V18.5482C32.1349 18.2245 32.4072 17.9622 32.7429 17.9622C33.3054 17.9622 33.7629 17.5212 33.7629 16.9791C33.7629 16.4371 33.3054 15.9961 32.7429 15.9961C32.1775 15.9961 31.723 16.4368 31.723 16.9785C31.723 17.3021 31.4507 17.5649 31.115 17.5649C30.7792 17.5649 30.5071 17.3027 30.5071 16.9792V16.9785C30.5071 15.7868 31.508 14.8242 32.7422 14.8242C33.9758 14.8242 34.9788 15.7909 34.9788 16.9792C34.9788 17.9644 34.2893 18.7973 33.3508 19.0532Z" fill="#7366FF"/>
<path d="M25.1978 24.1835C25.1978 25.7132 23.9111 26.9533 22.324 26.9533C20.7369 26.9533 19.4502 25.7132 19.4502 24.1835C19.4502 22.6537 20.7369 21.4136 22.324 21.4136C23.9111 21.4136 25.1978 22.6537 25.1978 24.1835Z" fill="#7366FF"/>
<path d="M22.324 26.9531C20.1902 26.9531 18.4602 28.6205 18.4602 30.677V31.4139C18.4602 31.7375 18.7324 31.9998 19.0681 31.9998H25.58C25.9156 31.9998 26.1879 31.7375 26.1879 31.4139V30.677C26.1879 28.6205 24.458 26.9531 22.324 26.9531Z" fill="#7366FF"/>
</g>
</g>
<defs>
<filter id="filter0_d_68_1907" x="0.336426" y="0.0854492" width="79.9177" height="76.2021" filterUnits="userSpaceOnUse" color-interpolation-filters="sRGB">
<feFlood flood-opacity="0" result="BackgroundImageFix"/>
<feColorMatrix in="SourceAlpha" type="matrix" values="0 0 0 0 0 0 0 0 0 0 0 0 0 0 0 0 0 0 127 0" result="hardAlpha"/>
<feOffset dx="12" dy="16"/>
<feGaussianBlur stdDeviation="10"/>
<feComposite in2="hardAlpha" operator="out"/>
<feColorMatrix type="matrix" values="0 0 0 0 0.839653 0 0 0 0 0.839653 0 0 0 0 0.891667 0 0 0 0.5 0"/>
<feBlend mode="normal" in2="BackgroundImageFix" result="effect1_dropShadow_68_1907"/>
<feBlend mode="normal" in="SourceGraphic" in2="effect1_dropShadow_68_1907" result="shape"/>
</filter>
<linearGradient id="paint0_linear_68_1907" x1="40.7187" y1="36.3512" x2="18.7707" y2="5.9267" gradientUnits="userSpaceOnUse">
<stop offset="2.4e-07" stop-color="#EBEBEB"/>
<stop offset="1" stop-color="#FAFAFA"/>
</linearGradient>
<clipPath id="clip0_68_1907">
<rect width="21.1498" height="19.6492" fill="white" transform="translate(17.2581 12.1343)"/>
</clipPath>
<clipPath id="clip1_68_1907">
<rect width="20.7512" height="20" fill="white" transform="translate(18.4602 12)"/>
</clipPath>
</defs>
</svg>
