<svg width="68" height="67" viewBox="0 0 68 67" fill="none" xmlns="http://www.w3.org/2000/svg">
<path d="M45.0179 13.5698C43.9316 11.1202 42.3757 8.91954 40.3976 7.02682C38.4195 5.13863 36.1093 3.65343 33.543 2.61651C30.8866 1.54336 28.0593 1 25.1515 1C21.2996 1 17.5189 1.98258 14.2173 3.83908C11.0486 5.62313 8.39687 8.15883 6.53735 11.1881L6.85518 11.3647C10.6501 5.18391 17.647 1.35319 25.1515 1.35319C36.8399 1.35319 46.3461 10.4274 46.3461 21.5845C46.3461 32.7008 36.9063 41.7523 25.2748 41.8157V42.1689C28.1447 42.1553 30.9245 41.612 33.5478 40.5524C36.1141 39.5155 38.4195 38.0303 40.4023 36.1421C42.3804 34.2539 43.9364 32.0488 45.0227 29.5991C46.1469 27.0634 46.7162 24.3647 46.7162 21.589C46.7162 18.8133 46.1422 16.1101 45.0179 13.5698Z" fill="#FF3364"/>
<path d="M4.87705 21.5845C4.87705 18.6458 5.57437 15.7478 6.91208 13.1261C7.16349 12.6325 6.97849 12.0394 6.48041 11.7677L6.45669 11.7541C5.90642 11.4507 5.20436 11.6545 4.92449 12.2024C4.31255 13.4023 3.81921 14.6521 3.45395 15.9335C2.93215 17.7673 2.6665 19.6691 2.6665 21.5845C2.6665 24.4824 3.25946 27.2943 4.43589 29.9387C5.56962 32.4925 7.18721 34.7882 9.25545 36.7625C11.3189 38.7322 13.724 40.2808 16.4041 41.363C18.6858 42.2821 21.0861 42.83 23.5528 42.9976C24.1885 43.0383 24.7245 42.5629 24.7245 41.9561V41.9335C24.7245 41.3811 24.2786 40.9328 23.6999 40.892C13.1927 40.1721 4.87705 31.7861 4.87705 21.5845Z" fill="#FF3364"/>
<g filter="url(#filter0_d_68_1937)">
<path d="M25.1514 39.1714C35.3269 39.1714 43.5758 31.2974 43.5758 21.5845C43.5758 11.8715 35.3269 3.99756 25.1514 3.99756C14.9759 3.99756 6.72705 11.8715 6.72705 21.5845C6.72705 31.2974 14.9759 39.1714 25.1514 39.1714Z" fill="url(#paint0_linear_68_1937)"/>
</g>
<path d="M25.0177 38.7297C34.8605 38.7297 42.8397 31.1133 42.8397 21.7179C42.8397 12.3225 34.8605 4.70605 25.0177 4.70605C15.175 4.70605 7.1958 12.3225 7.1958 21.7179C7.1958 31.1133 15.175 38.7297 25.0177 38.7297Z" fill="white"/>
<path d="M31.124 18.2451H30.3029C30.0786 18.2451 29.9558 18.3554 29.7844 18.5054L29.6173 16.7504C29.4873 15.3854 28.0893 14.2686 26.5109 14.2686H22.8114C21.233 14.2686 19.835 15.3854 19.705 16.7504L19.5386 18.4961C19.3726 18.3504 19.2509 18.2448 19.0309 18.2448H18.2098C17.921 18.2448 17.6873 18.4479 17.6873 18.6979C17.6873 18.9479 17.921 19.1514 18.2098 19.1514H19.2196H19.476L19.4742 19.1686C19.4583 19.1742 19.4486 19.1776 19.4486 19.1776C18.9617 19.3632 18.5634 19.8929 18.5634 20.3545V22.5036C18.5634 22.5045 18.5638 22.5057 18.5638 22.5067H18.5634V24.0264C18.5634 24.5904 19.0906 24.7932 19.7414 24.7932C20.3921 24.7932 20.9193 24.5904 20.9193 24.0264V23.3426H28.4022V24.0264C28.4022 24.5904 28.9295 24.7932 29.5802 24.7932C30.2309 24.7932 30.7581 24.5904 30.7581 24.0264V22.5036V22.4536V20.3548C30.7581 19.8932 30.3598 19.3636 29.873 19.1779C29.873 19.1779 29.8632 19.1745 29.8474 19.1689L29.8456 19.1517H30.1135H31.124C31.4125 19.1517 31.6462 18.9482 31.6462 18.6982C31.6462 18.4482 31.4125 18.2451 31.124 18.2451ZM20.9154 16.4989C21.0284 15.8836 21.7289 15.3851 22.4797 15.3851C22.4797 15.3851 23.8096 15.3201 24.661 15.3201C25.5126 15.3201 26.8426 15.3851 26.8426 15.3851C27.5927 15.3851 28.2931 15.8836 28.4066 16.4989L28.5265 18.7873C28.5348 18.9504 28.3896 19.082 28.202 19.082C28.202 19.082 27.095 19.2551 24.6592 19.2551C22.2237 19.2551 21.1206 19.082 21.1206 19.082C20.9326 19.082 20.7875 18.9501 20.7962 18.7873L20.9154 16.4989ZM21.0335 21.9414C20.5214 21.9414 20.1065 21.5817 20.1065 21.1373C20.1065 20.6932 20.5218 20.3332 21.0335 20.3332C21.5452 20.3332 21.9601 20.6932 21.9601 21.1373C21.9604 21.5814 21.5456 21.9414 21.0335 21.9414ZM25.9099 21.962H23.4113V21.4501H25.9099V21.962ZM25.9099 20.9126H23.4113V20.4007H25.9099V20.9126ZM28.2888 21.9414C27.7767 21.9414 27.3615 21.5817 27.3615 21.1373C27.3615 20.6932 27.7767 20.3332 28.2888 20.3332C28.8005 20.3332 29.215 20.6932 29.215 21.1373C29.215 21.5814 28.8002 21.9414 28.2888 21.9414Z" fill="#FF3364"/>
<path d="M23.8785 16.6549H25.4436C25.7083 16.6549 25.9232 16.4681 25.9232 16.239C25.9232 16.0096 25.7083 15.8228 25.4436 15.8228H23.8785C23.6138 15.8228 23.3992 16.0096 23.3992 16.239C23.3992 16.4681 23.6138 16.6549 23.8785 16.6549Z" fill="#FF3364"/>
<path d="M28.7891 27.4881C28.7891 26.9981 29.2468 26.6013 29.8111 26.601L31.3971 26.6013C31.007 25.9022 30.1845 25.4185 29.2295 25.4185C28.3155 25.4181 27.5204 25.86 27.112 26.5106L22.2093 26.511C21.801 25.8603 21.0058 25.4185 20.0918 25.4185C19.1174 25.4188 18.2804 25.9216 17.9009 26.6441H19.5106C20.0749 26.6441 20.5326 27.0413 20.5323 27.5306C20.5323 28.0206 20.0749 28.4175 19.5103 28.4178L17.9243 28.4175C18.3143 29.1166 19.1368 29.6003 20.0918 29.6003C20.9817 29.6006 21.7567 29.181 22.1741 28.5585H27.1473C27.5647 29.1806 28.3396 29.6003 29.2295 29.6003C30.204 29.6 31.0409 29.0972 31.4205 28.3747H29.8107C29.2464 28.3747 28.7891 27.9775 28.7891 27.4881Z" fill="#FF3364"/>
<defs>
<filter id="filter0_d_68_1937" x="0.682606" y="0.975336" width="67.0709" height="65.3961" filterUnits="userSpaceOnUse" color-interpolation-filters="sRGB">
<feFlood flood-opacity="0" result="BackgroundImageFix"/>
<feColorMatrix in="SourceAlpha" type="matrix" values="0 0 0 0 0 0 0 0 0 0 0 0 0 0 0 0 0 0 127 0" result="hardAlpha"/>
<feOffset dx="9.06667" dy="12.0889"/>
<feGaussianBlur stdDeviation="7.55556"/>
<feComposite in2="hardAlpha" operator="out"/>
<feColorMatrix type="matrix" values="0 0 0 0 0.839653 0 0 0 0 0.839653 0 0 0 0 0.891667 0 0 0 0.5 0"/>
<feBlend mode="normal" in2="BackgroundImageFix" result="effect1_dropShadow_68_1937"/>
<feBlend mode="normal" in="SourceGraphic" in2="effect1_dropShadow_68_1937" result="shape"/>
</filter>
<linearGradient id="paint0_linear_68_1937" x1="36.6198" y1="35.3466" x2="14.9741" y2="6.83812" gradientUnits="userSpaceOnUse">
<stop offset="2.4e-07" stop-color="#EBEBEB"/>
<stop offset="1" stop-color="#FAFAFA"/>
</linearGradient>
</defs>
</svg>
