<svg width="68" height="67" viewBox="0 0 68 67" fill="none" xmlns="http://www.w3.org/2000/svg">
<path d="M44.97 13.5698C43.8834 11.1202 42.3271 8.91954 40.3486 7.02682C38.37 5.13863 36.0594 3.65343 33.4925 2.61651C30.8354 1.54336 28.0075 1 25.099 1C21.2463 1 17.4648 1.98258 14.1624 3.83908C10.9929 5.62313 8.34065 8.15883 6.48071 11.1881L6.79861 11.3647C10.5944 5.18391 17.5929 1.35319 25.099 1.35319C36.79 1.35319 46.2985 10.4274 46.2985 21.5845C46.2985 32.7008 36.8565 41.7523 25.2224 41.8157V42.1689C28.093 42.1553 30.8734 41.612 33.4972 40.5524C36.0641 39.5155 38.37 38.0303 40.3533 36.1421C42.3319 34.2539 43.8882 32.0488 44.9747 29.5991C46.0992 27.0634 46.6686 24.3647 46.6686 21.589C46.6686 18.8133 46.0945 16.1101 44.97 13.5698Z" fill="#206387"/>
<path d="M4.81993 21.5845C4.81993 18.6458 5.51741 15.7478 6.85542 13.1261C7.10689 12.6325 6.92184 12.0394 6.42365 11.7677L6.39992 11.7541C5.84954 11.4507 5.14732 11.6545 4.86738 12.2024C4.25531 13.4023 3.76186 14.6521 3.39651 15.9335C2.87459 17.7673 2.60889 19.6691 2.60889 21.5845C2.60889 24.4824 3.20198 27.2943 4.37867 29.9387C5.51266 32.4925 7.13061 34.7882 9.19931 36.7625C11.2633 38.7322 13.6688 40.2808 16.3496 41.363C18.6318 42.2821 21.0327 42.83 23.4999 42.9976C24.1357 43.0383 24.6719 42.5629 24.6719 41.9561V41.9335C24.6719 41.3811 24.2259 40.9328 23.647 40.892C13.1374 40.1721 4.81993 31.7861 4.81993 21.5845Z" fill="#206387"/>
<g filter="url(#filter0_d_68_1768)">
<path d="M25.0989 39.1714C35.2767 39.1714 43.5275 31.2974 43.5275 21.5845C43.5275 11.8715 35.2767 3.99756 25.0989 3.99756C14.9211 3.99756 6.67041 11.8715 6.67041 21.5845C6.67041 31.2974 14.9211 39.1714 25.0989 39.1714Z" fill="url(#paint0_linear_68_1768)"/>
</g>
<path d="M24.9651 38.7297C34.8101 38.7297 42.7911 31.1133 42.7911 21.7179C42.7911 12.3225 34.8101 4.70605 24.9651 4.70605C15.1201 4.70605 7.13916 12.3225 7.13916 21.7179C7.13916 31.1133 15.1201 38.7297 24.9651 38.7297Z" fill="white"/>
<path d="M20.8872 16.3145H26.8845V19.7785H20.8872V16.3145Z" fill="#2D2C79"/>
<path d="M23.8856 24.0894L23.021 24.9147C22.7901 25.1352 22.6628 25.4283 22.6628 25.7401C22.6628 26.0518 22.7901 26.3449 23.021 26.5654C23.252 26.7859 23.559 26.9073 23.8856 26.9073C24.2123 26.9073 24.5193 26.7859 24.7503 26.5654C25.227 26.1103 25.227 25.3699 24.7503 24.9148L23.8856 24.0894Z" fill="#2D2C79"/>
<path d="M34.9305 15.4139L32.563 13.1545C32.3472 12.9485 31.9973 12.9485 31.7815 13.1545C31.5657 13.3604 31.5657 13.6943 31.7815 13.9002L33.9872 16.0052V26.5188C33.9872 26.8509 33.704 27.1211 33.356 27.1211C33.008 27.1211 32.7248 26.8509 32.7248 26.5188V20.8703C32.7248 19.9566 31.9459 19.2133 30.9885 19.2133H30.3573V14.9395C30.3574 13.87 29.4457 13 28.3251 13H19.447C18.3264 13 17.4147 13.87 17.4147 14.9395V29.9453H16.7835C16.4784 29.9453 16.231 30.1814 16.231 30.4727C16.231 30.7639 16.4784 31 16.7835 31H17.9673H29.8048H30.9885C31.2937 31 31.5411 30.7639 31.5411 30.4727C31.5411 30.1814 31.2937 29.9453 30.9885 29.9453H30.3574V20.268H30.9885C31.3366 20.268 31.6197 20.5382 31.6197 20.8703V26.5188C31.6197 27.4324 32.3986 28.1758 33.3561 28.1758C34.3135 28.1758 35.0924 27.4324 35.0924 26.5188V15.7868C35.0923 15.6469 35.0341 15.5128 34.9305 15.4139ZM25.5323 27.3111C25.0926 27.7308 24.5079 27.9619 23.886 27.9619C23.2642 27.9619 22.6795 27.7308 22.2397 27.3111C21.8 26.8915 21.5578 26.3335 21.5578 25.7401C21.5578 25.1466 21.8 24.5886 22.2397 24.169L23.4953 22.9707C23.5989 22.8718 23.7394 22.8162 23.886 22.8162C24.0326 22.8162 24.1731 22.8718 24.2767 22.9707L25.5323 24.169C26.44 25.0353 26.44 26.4449 25.5323 27.3111ZM27.9899 20.3055C27.9899 20.5967 27.7424 20.8328 27.4373 20.8328H20.3348C20.0296 20.8328 19.7822 20.5967 19.7822 20.3055V15.7868C19.7822 15.4955 20.0296 15.2594 20.3348 15.2594H27.4373C27.7424 15.2594 27.9899 15.4955 27.9899 15.7868V20.3055Z" fill="#2D2C79"/>
<defs>
<filter id="filter0_d_68_1768" x="0.625965" y="0.975336" width="67.0792" height="65.3961" filterUnits="userSpaceOnUse" color-interpolation-filters="sRGB">
<feFlood flood-opacity="0" result="BackgroundImageFix"/>
<feColorMatrix in="SourceAlpha" type="matrix" values="0 0 0 0 0 0 0 0 0 0 0 0 0 0 0 0 0 0 127 0" result="hardAlpha"/>
<feOffset dx="9.06667" dy="12.0889"/>
<feGaussianBlur stdDeviation="7.55556"/>
<feComposite in2="hardAlpha" operator="out"/>
<feColorMatrix type="matrix" values="0 0 0 0 0.839653 0 0 0 0 0.839653 0 0 0 0 0.891667 0 0 0 0.5 0"/>
<feBlend mode="normal" in2="BackgroundImageFix" result="effect1_dropShadow_68_1768"/>
<feBlend mode="normal" in="SourceGraphic" in2="effect1_dropShadow_68_1768" result="shape"/>
</filter>
<linearGradient id="paint0_linear_68_1768" x1="36.5698" y1="35.3466" x2="14.9255" y2="6.83342" gradientUnits="userSpaceOnUse">
<stop offset="2.4e-07" stop-color="#EBEBEB"/>
<stop offset="1" stop-color="#FAFAFA"/>
</linearGradient>
</defs>
</svg>
