<svg width="68" height="67" viewBox="0 0 68 67" fill="none" xmlns="http://www.w3.org/2000/svg">
<path d="M45.1084 13.5698C44.027 11.1202 42.4782 8.91954 40.5091 7.02682C38.54 5.13863 36.2403 3.65343 33.6856 2.61651C31.0413 1.54336 28.2269 1 25.3322 1C21.4979 1 17.7344 1.98258 14.4478 3.83908C11.2934 5.62313 8.6538 8.15883 6.80273 11.1881L7.11912 11.3647C10.8968 5.18391 17.8619 1.35319 25.3322 1.35319C36.9675 1.35319 46.4306 10.4274 46.4306 21.5845C46.4306 32.7008 37.0336 41.7523 25.455 41.8157V42.1689C28.3119 42.1553 31.079 41.612 33.6904 40.5524C36.245 39.5155 38.54 38.0303 40.5138 36.1421C42.4829 34.2539 44.0318 32.0488 45.1131 29.5991C46.2323 27.0634 46.7989 24.3647 46.7989 21.589C46.7989 18.8133 46.2275 16.1101 45.1084 13.5698Z" fill="#03D53D"/>
<path d="M5.14996 21.5845C5.14996 18.6458 5.84411 15.7478 7.17574 13.1261C7.42601 12.6325 7.24185 12.0394 6.74603 11.7677L6.72242 11.7541C6.17466 11.4507 5.47579 11.6545 5.19718 12.2024C4.58803 13.4023 4.09693 14.6521 3.73333 15.9335C3.2139 17.7673 2.94946 19.6691 2.94946 21.5845C2.94946 24.4824 3.53973 27.2943 4.71081 29.9387C5.83939 32.4925 7.44962 34.7882 9.50846 36.7625C11.5626 38.7322 13.9567 40.2808 16.6247 41.363C18.896 42.2821 21.2854 42.83 23.7409 42.9976C24.3736 43.0383 24.9072 42.5629 24.9072 41.9561V41.9335C24.9072 41.3811 24.4633 40.9328 23.8872 40.892C13.4278 40.1721 5.14996 31.7861 5.14996 21.5845Z" fill="#03D53D"/>
<g filter="url(#filter0_d_68_1795)">
<path d="M25.3321 39.1714C35.4613 39.1714 43.6727 31.2974 43.6727 21.5845C43.6727 11.8715 35.4613 3.99756 25.3321 3.99756C15.2028 3.99756 6.99146 11.8715 6.99146 21.5845C6.99146 31.2974 15.2028 39.1714 25.3321 39.1714Z" fill="url(#paint0_linear_68_1795)"/>
</g>
<path d="M25.1992 38.7297C34.9972 38.7297 42.9401 31.1133 42.9401 21.7179C42.9401 12.3225 34.9972 4.70605 25.1992 4.70605C15.4011 4.70605 7.45825 12.3225 7.45825 21.7179C7.45825 31.1133 15.4011 38.7297 25.1992 38.7297Z" fill="white"/>
<path d="M34.3004 20.75C34.1782 20.5547 32.972 20.0551 32.972 20.0551C33.1818 19.9512 33.3252 19.9297 33.3252 19.5C33.3252 19.0312 33.3228 18.875 32.9969 18.875H31.8913C31.8868 18.8656 31.8819 18.8559 31.8774 18.8461C31.1637 17.3516 31.068 16.9738 30.0035 16.4652C28.5757 15.7844 25.8989 15.75 24.8495 15.75C23.8002 15.75 21.1234 15.7844 19.6968 16.4652C18.6311 16.973 18.6576 17.2344 17.8229 18.8461C17.8229 18.8504 17.8143 18.8617 17.8066 18.875H16.6998C16.3763 18.875 16.3739 19.0312 16.3739 19.5C16.3739 19.9297 16.5173 19.9512 16.7271 20.0551C16.7271 20.0551 15.5616 20.5938 15.3986 20.75C15.2357 20.9062 15.0728 22 15.0728 23.875C15.0728 25.75 15.2357 27.625 15.2357 27.625H15.7221C15.7221 28.1719 15.806 28.25 16.0504 28.25H19.3094C19.5538 28.25 19.6353 28.1719 19.6353 27.625H30.0638C30.0638 28.1719 30.1453 28.25 30.3897 28.25H33.7301C33.8931 28.25 33.9745 28.1328 33.9745 27.625H34.4634C34.4634 27.625 34.6263 25.7109 34.6263 23.875C34.6263 22.0391 34.4226 20.9453 34.3004 20.75ZM19.5236 22.5055C18.7817 22.5832 18.036 22.6231 17.2896 22.625C16.4578 22.625 16.4293 22.6762 16.3706 22.1781C16.3486 21.9502 16.3555 21.7205 16.3914 21.4941L16.4171 21.375H16.5393C17.0281 21.375 17.4872 21.3949 18.3541 21.6398C18.795 21.7667 19.2097 21.9657 19.5799 22.2281C19.7575 22.3516 19.7982 22.4688 19.7982 22.4688L19.5236 22.5055ZM29.5921 25.318L29.412 25.75H20.287C20.287 25.75 20.3029 25.7262 20.0834 25.3133C19.9204 25.0078 20.1241 24.8125 20.4463 24.7016C21.0704 24.4859 22.8942 23.875 24.8495 23.875C26.8049 23.875 28.6649 24.4016 29.2695 24.7016C29.4935 24.8125 29.7717 24.8906 29.5921 25.3203V25.318ZM19.1228 19.9848C18.9912 19.992 18.8593 19.993 18.7276 19.9875C18.834 19.8062 18.893 19.6043 18.9969 19.3934C19.3228 18.7293 19.6955 17.9777 20.3591 17.6609C21.3181 17.2031 23.3056 16.9969 24.8495 16.9969C26.3935 16.9969 28.381 17.2016 29.3399 17.6609C30.0035 17.9777 30.3746 18.7297 30.7022 19.3934C30.8069 19.6063 30.8651 19.8098 30.9743 19.9922C30.8928 19.9965 30.7991 19.9922 30.5755 19.9848H19.1228ZM33.2877 22.1766C33.2005 22.6641 33.282 22.625 32.4094 22.625C31.6631 22.6231 30.9174 22.5832 30.1754 22.5055C30.0593 22.4855 30.0263 22.2977 30.1192 22.2281C30.4875 21.9628 30.9028 21.7635 31.345 21.6398C32.2119 21.3949 32.6999 21.3621 33.1818 21.3785C33.2142 21.3797 33.2449 21.3923 33.2682 21.414C33.2914 21.4356 33.3055 21.4647 33.3077 21.4957C33.3307 21.7231 33.324 21.9523 33.2877 22.1781V22.1766Z" fill="#03D53D"/>
<defs>
<filter id="filter0_d_68_1795" x="0.94701" y="0.975336" width="66.9034" height="65.3961" filterUnits="userSpaceOnUse" color-interpolation-filters="sRGB">
<feFlood flood-opacity="0" result="BackgroundImageFix"/>
<feColorMatrix in="SourceAlpha" type="matrix" values="0 0 0 0 0 0 0 0 0 0 0 0 0 0 0 0 0 0 127 0" result="hardAlpha"/>
<feOffset dx="9.06667" dy="12.0889"/>
<feGaussianBlur stdDeviation="7.55556"/>
<feComposite in2="hardAlpha" operator="out"/>
<feColorMatrix type="matrix" values="0 0 0 0 0.839653 0 0 0 0 0.839653 0 0 0 0 0.891667 0 0 0 0.5 0"/>
<feBlend mode="normal" in2="BackgroundImageFix" result="effect1_dropShadow_68_1795"/>
<feBlend mode="normal" in="SourceGraphic" in2="effect1_dropShadow_68_1795" result="shape"/>
</filter>
<linearGradient id="paint0_linear_68_1795" x1="36.7483" y1="35.3466" x2="15.0763" y2="6.93322" gradientUnits="userSpaceOnUse">
<stop offset="2.4e-07" stop-color="#EBEBEB"/>
<stop offset="1" stop-color="#FAFAFA"/>
</linearGradient>
</defs>
</svg>
