<svg width="8" height="8" viewBox="0 0 8 8" fill="none" xmlns="http://www.w3.org/2000/svg">
<path d="M7.3984 7.36796C7.49381 7.27255 7.54746 7.14308 7.54753 7.00806C7.54753 6.8731 7.49388 6.74363 7.3984 6.64815L2.42187 1.67162L5.99761 1.39668C6.13577 1.39119 6.26581 1.3297 6.3578 1.22631C6.44972 1.12299 6.49568 0.986672 6.48499 0.848729C6.47438 0.710852 6.40797 0.583165 6.30122 0.49523C6.19448 0.407303 6.05654 0.366552 5.91916 0.382371L1.23996 0.742449L1.23989 0.742378C1.20661 0.747722 1.17398 0.756272 1.14234 0.767957C1.12075 0.772161 1.09945 0.77779 1.07864 0.784916C0.958008 0.833439 0.862314 0.929133 0.813781 1.04978C0.806656 1.07058 0.801026 1.09189 0.796822 1.11348C0.785137 1.14511 0.776586 1.17775 0.771243 1.21102L0.411165 5.89022L0.411236 5.8903C0.404253 6.06743 0.489898 6.23545 0.637389 6.33377C0.784887 6.43224 0.973 6.44678 1.13382 6.37217C1.29471 6.29764 1.40523 6.14479 1.42554 5.96872L1.70195 2.39152L6.67848 7.36805C6.77396 7.46353 6.90343 7.51719 7.03845 7.51711C7.1734 7.51711 7.30287 7.46346 7.39835 7.36798L7.3984 7.36796Z" fill="#FFAA05" stroke="#FFAA05" stroke-width="0.5"/>
</svg>
