<svg width="21" height="27" viewBox="0 0 21 27" fill="none" xmlns="http://www.w3.org/2000/svg">
<path d="M2.40057 7.25879C2.66144 7.25879 2.87291 7.46165 2.87291 7.71191V8.27832C2.87291 8.52858 2.66144 8.73145 2.40057 8.73145C2.13969 8.73145 1.92822 8.52858 1.92822 8.27832V7.71191C1.92822 7.46165 2.13969 7.25879 2.40057 7.25879Z" fill="#2D2C79"/>
<path fill-rule="evenodd" clip-rule="evenodd" d="M1.21959 0.801758C0.697862 0.801758 0.274902 1.2075 0.274902 1.70801V8.95801C0.274902 9.45851 0.697862 9.86426 1.21959 9.86426H3.69939C4.22112 9.86426 4.64408 9.45851 4.64408 8.95801H5.17487C5.71646 8.95801 6.2436 9.21966 6.62447 9.64909C7.08094 10.1637 7.74881 10.8288 8.44191 11.1729C9.03571 11.4678 9.53337 11.5773 10.0052 11.6613C10.0798 11.6746 10.1529 11.6871 10.2251 11.6995C10.6089 11.7653 10.9692 11.8271 11.4026 11.9732C12.1037 12.3994 13.2092 13.0325 14.0942 13.5339C14.7079 13.8815 15.4294 13.8407 15.9803 13.513V14.5409C14.378 14.7608 13.1463 16.0827 13.1463 17.6807C13.1463 18.9015 13.865 19.9603 14.9175 20.4906V20.7781C14.9175 21.0185 15.0171 21.249 15.1942 21.4189L15.3413 21.56L15.1365 21.7957C14.995 21.9586 14.9175 22.1639 14.9175 22.3759V23.0137C14.9175 23.289 15.0356 23.5713 15.309 23.7496L15.1365 23.9481C14.995 24.111 14.9175 24.3162 14.9175 24.5283V25.6104C14.9175 26.1108 15.3405 26.5166 15.8622 26.5166H16.4578C16.7493 26.5166 17.0245 26.3875 17.2035 26.1668L17.7888 25.445C17.9178 25.2857 17.9878 25.0899 17.9878 24.8885V20.4906C19.0402 19.9603 19.7591 18.9015 19.7591 17.6807C19.7591 16.0827 18.5273 14.7608 16.925 14.5409V13.3217C17.2343 13.6642 17.6343 13.9367 18.102 14.102C18.5988 14.2776 19.1429 13.9915 19.2558 13.4952L20.5207 7.93299C20.5883 7.63604 20.4962 7.32637 20.2753 7.10835L16.5241 3.40385C16.4102 3.29139 16.2679 3.20919 16.111 3.1653L10.6273 1.63098C10.5414 1.60694 10.4523 1.59473 10.3628 1.59473H4.63678C4.57866 1.14768 4.18113 0.801758 3.69939 0.801758H1.21959ZM14.0909 17.6807C14.0909 16.5846 14.9023 15.6703 15.9803 15.4604V17.001C15.9803 17.2512 16.1918 17.4541 16.4527 17.4541C16.7135 17.4541 16.925 17.2512 16.925 17.001V15.4604C18.003 15.6703 18.8144 16.5846 18.8144 17.6807C18.8144 18.6429 18.1889 19.4661 17.305 19.7944C17.1847 19.8391 17.0887 19.929 17.0393 20.0433C17.018 20.0925 17.0431 24.8885 17.0431 24.8885L16.4578 25.6104H15.8622V24.5283L16.0347 24.3298C16.3734 23.9399 16.3346 23.3447 15.8622 23.0137V22.3759L16.067 22.1401C16.3798 21.7801 16.3548 21.2507 16.0093 20.9192L15.8622 20.7781V20.3994V20.3991C15.914 20.286 15.9154 20.1574 15.866 20.0433C15.8166 19.929 15.7206 19.8391 15.6003 19.7944C14.7164 19.4661 14.0909 18.6429 14.0909 17.6807ZM4.64408 2.50098V8.05176H5.17487C6.03792 8.05176 6.81459 8.46496 7.34395 9.06182C7.79099 9.56583 8.35842 10.1111 8.87609 10.3681C9.351 10.6038 9.74503 10.6933 10.1775 10.7702C10.2429 10.7819 10.3099 10.7933 10.3787 10.805C10.7652 10.8709 11.2063 10.9462 11.7186 11.1191C11.7858 11.1418 11.8485 11.1714 11.9069 11.2069C12.5938 11.6245 13.688 12.2513 14.5746 12.7535C15.0506 13.0232 15.6656 12.8069 15.8485 12.3023C15.9965 11.8941 15.8031 11.4161 15.3767 11.1804C14.6291 10.7674 13.6221 10.1392 12.9405 9.41718C12.6001 9.05663 12.3075 8.63837 12.1958 8.18013C12.0778 7.6968 12.1704 7.2019 12.5387 6.75229C12.9363 6.26676 13.4663 6.11376 14.001 6.18416C14.4977 6.24954 14.9849 6.50289 15.4028 6.78659C16.2462 7.35931 16.9969 8.18958 17.2824 8.52101C17.4515 8.71729 17.5185 8.96841 17.4836 9.20927L17.1863 11.2629C17.0655 12.097 17.5474 12.9001 18.3508 13.2223L19.5978 7.7398L15.8465 4.0353L10.3628 2.50098H4.64408ZM1.21959 1.70801H3.69939V8.95801H1.21959V1.70801ZM16.5471 9.09007L16.3076 10.7443C16.1745 10.6084 16.0201 10.4901 15.8482 10.3951C15.1189 9.9922 14.2189 9.42131 13.6407 8.80882C13.3511 8.50212 13.1755 8.21932 13.1156 7.97364C13.0618 7.75306 13.0939 7.54118 13.2815 7.31217C13.452 7.10405 13.637 7.05099 13.8726 7.082C14.1464 7.11805 14.4849 7.27365 14.857 7.52629C15.5871 8.02201 16.267 8.76563 16.5471 9.09007Z" fill="#2D2C79"/>
<path d="M12.8986 16.0885C13.1594 16.0946 13.3759 15.8967 13.3822 15.6465C13.3885 15.3963 13.1822 15.1886 12.9214 15.1826C12.0534 15.1625 11.1767 15.469 10.5114 16.1029C9.60844 16.9632 9.33179 18.1986 9.68128 19.2886L9.46856 19.4913C9.29079 19.6606 9.19044 19.8908 9.18957 20.1312L9.18886 20.3307L8.87015 20.3574C8.64999 20.3759 8.44355 20.4678 8.28676 20.6172L7.81507 21.0666C7.61147 21.2606 7.47808 21.5321 7.54655 21.8515L7.27821 21.874C7.05805 21.8926 6.85161 21.9845 6.69479 22.1338L5.89448 22.8965C5.52428 23.249 5.52223 23.8229 5.88987 24.1779L6.30955 24.5834C6.51497 24.7819 6.8044 24.8782 7.09378 24.8444L8.04015 24.7341C8.24869 24.7099 8.44282 24.6195 8.59189 24.4774L11.8447 21.3785C12.6368 21.618 13.504 21.5647 14.2632 21.2179C14.4987 21.1103 14.5987 20.8399 14.4866 20.614C14.3744 20.388 14.0925 20.2921 13.857 20.3997C13.2341 20.6843 12.507 20.692 11.8785 20.4231L11.4271 20.23L11.2467 20.671L11.2465 20.6712L7.92619 23.8344L6.97985 23.9448L6.56015 23.5394L7.36049 22.7768L7.62883 22.7544C8.15597 22.7102 8.54085 22.3251 8.48077 21.7096L8.95243 21.2602L9.27114 21.2335C9.75787 21.1927 10.1318 20.8025 10.1335 20.3338C10.1352 19.8651 10.4144 19.8674 10.4144 19.8674L10.4146 19.8672L10.8755 19.6972L10.6773 19.2628C10.2973 18.4298 10.4654 17.424 11.1771 16.7459C11.6524 16.2931 12.2772 16.0742 12.8986 16.0885Z" fill="#2D2C79"/>
</svg>
