<svg width="20" height="20" viewBox="0 0 20 20" fill="none" xmlns="http://www.w3.org/2000/svg">
<path d="M19.0625 8.75C18.9453 8.55469 17.7887 8.05508 17.7887 8.05508C17.9898 7.95117 18.1273 7.92969 18.1273 7.5C18.1273 7.03125 18.125 6.875 17.8125 6.875H16.7523C16.748 6.86562 16.7434 6.85586 16.7391 6.84609C16.0547 5.35156 15.9629 4.97383 14.9422 4.46523C13.573 3.78437 11.0063 3.75 10 3.75C8.99375 3.75 6.42695 3.78437 5.05898 4.46523C4.03711 4.97305 4.0625 5.23437 3.26211 6.84609C3.26211 6.85039 3.25391 6.86172 3.24648 6.875H2.18516C1.875 6.875 1.87266 7.03125 1.87266 7.5C1.87266 7.92969 2.01016 7.95117 2.21133 8.05508C2.21133 8.05508 1.09375 8.59375 0.9375 8.75C0.78125 8.90625 0.625 10 0.625 11.875C0.625 13.75 0.78125 15.625 0.78125 15.625H1.24766C1.24766 16.1719 1.32812 16.25 1.5625 16.25H4.6875C4.92188 16.25 5 16.1719 5 15.625H15C15 16.1719 15.0781 16.25 15.3125 16.25H18.5156C18.6719 16.25 18.75 16.1328 18.75 15.625H19.2188C19.2188 15.625 19.375 13.7109 19.375 11.875C19.375 10.0391 19.1797 8.94531 19.0625 8.75ZM4.89297 10.5055C4.18153 10.5832 3.46646 10.6231 2.75078 10.625C1.95312 10.625 1.92578 10.6762 1.86953 10.1781C1.84837 9.95017 1.85506 9.72048 1.88945 9.49414L1.91406 9.375H2.03125C2.5 9.375 2.94023 9.39492 3.77148 9.63984C4.19427 9.76671 4.59192 9.96573 4.94688 10.2281C5.11719 10.3516 5.15625 10.4688 5.15625 10.4688L4.89297 10.5055ZM14.5477 13.318L14.375 13.75H5.625C5.625 13.75 5.64023 13.7262 5.42969 13.3133C5.27344 13.0078 5.46875 12.8125 5.77773 12.7016C6.37617 12.4859 8.125 11.875 10 11.875C11.875 11.875 13.6586 12.4016 14.2383 12.7016C14.4531 12.8125 14.7199 12.8906 14.5477 13.3203V13.318ZM4.50859 7.98477C4.38242 7.99205 4.25596 7.99296 4.12969 7.9875C4.23164 7.80625 4.28828 7.6043 4.38789 7.39336C4.70039 6.7293 5.05781 5.97773 5.69414 5.66094C6.61367 5.20312 8.51953 4.99687 10 4.99687C11.4805 4.99687 13.3863 5.20156 14.3059 5.66094C14.9422 5.97773 15.298 6.72969 15.6121 7.39336C15.7125 7.60625 15.7684 7.80977 15.873 7.99219C15.7949 7.99648 15.7051 7.99219 15.4906 7.98477H4.50859ZM18.0914 10.1766C18.0078 10.6641 18.0859 10.625 17.2492 10.625C16.5335 10.6231 15.8185 10.5832 15.107 10.5055C14.9957 10.4855 14.9641 10.2977 15.0531 10.2281C15.4063 9.96282 15.8045 9.76352 16.2285 9.63984C17.0598 9.39492 17.5277 9.36211 17.9898 9.37852C18.0209 9.3797 18.0504 9.39232 18.0727 9.41396C18.095 9.4356 18.1084 9.46471 18.1105 9.4957C18.1326 9.72309 18.1262 9.95234 18.0914 10.1781V10.1766Z" fill="white"/>
</svg>
