<svg width="18" height="18" viewBox="0 0 18 18" fill="none" xmlns="http://www.w3.org/2000/svg">
<path fill-rule="evenodd" clip-rule="evenodd" d="M3.71939 9.09287C3.71939 10.6394 4.36442 12.0768 5.50331 13.0902C4.99214 13.3863 4.53904 13.7874 4.18518 14.2665C3.74631 14.8626 3.47092 15.5469 3.37668 16.2716L1.86662 14.7464C1.76738 14.645 1.76277 14.4825 1.85893 14.3765L2.74473 13.3945C2.95859 13.1575 2.99628 12.8237 2.84243 12.5431C2.5828 12.071 2.37664 11.5689 2.23048 11.0513C2.14394 10.7436 1.88277 10.5349 1.56507 10.5198L0.253088 10.4584C0.111543 10.4518 0 10.334 0 10.1906V7.99512C0 7.85173 0.111543 7.73438 0.253088 7.72739L1.56507 7.66599C1.88277 7.65122 2.1424 7.44255 2.23048 7.13441C2.37664 6.61643 2.5828 6.11437 2.84243 5.64263C2.99667 5.36246 2.95897 5.02828 2.74473 4.79124L1.85893 3.80929C1.76315 3.70321 1.76777 3.54117 1.86662 3.43975L3.40361 1.88697C3.50438 1.78554 3.66477 1.78166 3.77016 1.87842L4.74251 2.77333C4.97675 2.98899 5.30715 3.02824 5.58408 2.87242C6.05141 2.61012 6.54836 2.40184 7.06107 2.2534C7.36608 2.16558 7.57225 1.90173 7.58802 1.58193L7.64763 0.255688C7.65533 0.112301 7.77033 0 7.91341 0H10.0858C10.2274 0 10.3439 0.112301 10.3501 0.2553L10.4116 1.58154C10.4258 1.90173 10.6335 2.16519 10.9385 2.2534C11.4513 2.40145 11.947 2.60973 12.414 2.87203C12.6925 3.02785 13.0229 2.98899 13.2571 2.77294L14.2295 1.87842C14.3348 1.78205 14.4952 1.78554 14.596 1.88697L16.1315 3.43975C16.2322 3.54117 16.2368 3.70321 16.1411 3.80929L15.2553 4.79124C15.0414 5.02828 15.0022 5.36246 15.156 5.64263C15.4172 6.11515 15.6234 6.61681 15.7695 7.13441C15.8561 7.44255 16.1172 7.65122 16.4334 7.66599L17.7469 7.72739C17.8885 7.73438 18 7.85173 18 7.99512V10.1906C18 10.334 17.8885 10.4518 17.7469 10.4584L16.4334 10.5198C16.1172 10.5345 15.8561 10.7432 15.7695 11.0513C15.6234 11.5693 15.4172 12.0714 15.156 12.5435C15.0018 12.8237 15.041 13.1579 15.2553 13.3949L16.1411 14.3765C16.2368 14.4825 16.2322 14.645 16.1315 14.7464L14.596 16.2988C14.5787 16.3163 14.5583 16.3306 14.5379 16.3423C14.4529 15.5916 14.1745 14.882 13.7198 14.2665C13.3783 13.8052 12.9475 13.4159 12.4582 13.1233C13.6206 12.1083 14.2798 10.6589 14.2798 9.09287C14.2798 6.15129 11.9105 3.75839 8.99885 3.75839C6.0868 3.75839 3.71939 6.15129 3.71939 9.09287ZM8.95307 11.656C10.2401 11.656 10.8032 10.7649 11.0232 10.2338C11.4636 9.17137 11.322 7.79228 10.7055 7.15967C10.2462 6.68792 9.70657 6.47731 8.95461 6.47731C8.19958 6.47731 7.6584 6.68792 7.19915 7.15967C6.58413 7.79228 6.44104 9.17137 6.88145 10.2334C7.10146 10.7646 7.66494 11.656 8.95307 11.656ZM9.57772 16.073L9.13578 14.4818C9.05885 14.2024 9.10731 13.9191 9.27424 13.6832L9.76657 12.9884H8.13842L8.63229 13.6852C8.7973 13.9191 8.84615 14.2012 8.7723 14.4786L8.33497 16.087L8.95154 17.245L9.57772 16.073ZM11.6167 13.2294L9.15616 17.8473C9.11539 17.9227 9.03808 17.9697 8.95154 17.9697C8.86807 17.9697 8.78961 17.9227 8.74845 17.8473L6.28796 13.2294C4.79174 13.7901 3.79939 15.2185 3.79939 16.842V18H5.55485V16.7173C5.55485 16.5883 5.6587 16.4841 5.78602 16.4841C5.91333 16.4841 6.01718 16.5883 6.01718 16.7173V18H11.8867V16.7173C11.8867 16.5883 11.9905 16.4841 12.1178 16.4841C12.2451 16.4841 12.349 16.5883 12.349 16.7173V18H14.1044V16.842C14.1052 15.2185 13.1125 13.7901 11.6167 13.2294Z" fill="#F5F6F9"/>
</svg>
