<svg width="18" height="18" viewBox="0 0 18 18" fill="none" xmlns="http://www.w3.org/2000/svg">
<path d="M4.44373 3.31396H10.1672V6.77802H4.44373V3.31396Z" fill="white"/>
<path d="M7.30541 11.0894L6.48008 11.9147C6.25961 12.1352 6.13818 12.4283 6.13818 12.7401C6.13818 13.0518 6.25961 13.3449 6.48008 13.5654C6.70054 13.7859 6.99364 13.9073 7.30541 13.9073C7.61717 13.9073 7.9103 13.7859 8.13077 13.5654C8.5858 13.1103 8.5858 12.3699 8.13077 11.9148L7.30541 11.0894Z" fill="white"/>
<path d="M17.8455 2.41386L15.5862 0.154477C15.3802 -0.0514687 15.0463 -0.0514687 14.8404 0.154477C14.6345 0.360387 14.6345 0.694301 14.8404 0.900246L16.9453 3.00516V13.5188C16.9453 13.8509 16.6751 14.1211 16.343 14.1211C16.0108 14.1211 15.7406 13.8509 15.7406 13.5188V7.87032C15.7406 6.95665 14.9973 6.21327 14.0836 6.21327H13.4812V1.93946C13.4813 0.870047 12.6112 0 11.5418 0H3.06918C1.99972 0 1.12968 0.870047 1.12968 1.93946V16.9453H0.527344C0.236109 16.9453 0 17.1814 0 17.4727C0 17.7639 0.236109 18 0.527344 18H1.65702H12.9539H14.0836C14.3748 18 14.6109 17.7639 14.6109 17.4727C14.6109 17.1814 14.3748 16.9453 14.0836 16.9453H13.4813V7.26796H14.0836C14.4158 7.26796 14.686 7.5382 14.686 7.87032V13.5188C14.686 14.4324 15.4293 15.1758 16.343 15.1758C17.2567 15.1758 18 14.4324 18 13.5188V2.78677C18 2.64688 17.9444 2.51276 17.8455 2.41386ZM8.8766 14.3111C8.45691 14.7308 7.89894 14.9619 7.30547 14.9619C6.712 14.9619 6.15403 14.7308 5.73437 14.3111C5.31468 13.8915 5.08356 13.3335 5.08356 12.7401C5.08356 12.1466 5.31468 11.5886 5.73437 11.169L6.93257 9.9707C7.03146 9.8718 7.16558 9.81622 7.30547 9.81622C7.44532 9.81622 7.57944 9.87177 7.67834 9.9707L8.8766 11.169C9.74282 12.0353 9.74282 13.4449 8.8766 14.3111ZM11.2219 7.3055C11.2219 7.59674 10.9858 7.83285 10.6945 7.83285H3.91641C3.62517 7.83285 3.38906 7.59674 3.38906 7.3055V2.78677C3.38906 2.49553 3.62517 2.25942 3.91641 2.25942H10.6945C10.9858 2.25942 11.2219 2.49553 11.2219 2.78677V7.3055Z" fill="white"/>
</svg>
