<svg width="20" height="20" viewBox="0 0 20 20" fill="none" xmlns="http://www.w3.org/2000/svg">
<path d="M3.75 10.625C2.37152 10.625 1.25 9.50378 1.25 8.125C1.25 6.74622 2.37152 5.625 3.75 5.625C5.12848 5.625 6.25 6.74622 6.25 8.125C6.25 9.50378 5.12848 10.625 3.75 10.625ZM4.85626 11.0437C4.14368 11.319 3.35632 11.319 2.64374 11.0437C2.46246 10.9747 2.25616 10.9998 2.09381 11.0999C1.17493 11.6815 0.625 12.6685 0.625 13.75V16.25C0.625 16.5936 0.906372 16.875 1.25 16.875H4.375V13.75C4.375 12.7814 4.63135 11.8378 5.09369 11.0126C5.01251 10.9998 4.93134 11.0126 4.85626 11.0437ZM16.25 10.625C17.6285 10.625 18.75 9.50378 18.75 8.125C18.75 6.74622 17.6285 5.625 16.25 5.625C14.8715 5.625 13.75 6.74622 13.75 8.125C13.75 9.50378 14.8715 10.625 16.25 10.625ZM17.9062 11.0999C17.7438 10.9998 17.5375 10.9747 17.3563 11.0437C16.6437 11.319 15.8563 11.319 15.1437 11.0437C15.0687 11.0126 14.9875 10.9998 14.9063 11.0126C15.3687 11.8378 15.625 12.7814 15.625 13.75V16.875H18.75C19.0936 16.875 19.375 16.5936 19.375 16.25V13.75C19.375 12.6685 18.8251 11.6815 17.9062 11.0999ZM10 9.375C8.27698 9.375 6.875 7.97302 6.875 6.25C6.875 4.52698 8.27698 3.125 10 3.125C11.723 3.125 13.125 4.52698 13.125 6.25C13.125 7.97302 11.723 9.375 10 9.375ZM14.375 13.75C14.375 12.356 13.7064 11.0437 12.5812 10.2252C12.3938 10.0873 12.1439 10.069 11.9376 10.1685C11.5189 10.3815 11.0751 10.5127 10.625 10.575V13.75C10.625 14.0936 10.3436 14.375 10 14.375C9.65637 14.375 9.375 14.0936 9.375 13.75V10.575C8.92487 10.5127 8.48114 10.3815 8.06244 10.1685C7.85614 10.069 7.6062 10.0873 7.41882 10.2252C6.29364 11.0437 5.625 12.356 5.625 13.75V16.875H14.375V13.75Z" fill="white"/>
</svg>
