<svg width="20" height="20" viewBox="0 0 20 20" fill="none" xmlns="http://www.w3.org/2000/svg">
<g clip-path="url(#clip0_1266_329)">
<path d="M19.8284 9.58556L17.5656 7.3227C17.1965 6.95356 16.5653 7.21501 16.5653 7.737V8.6327H14.6877C14.8145 9.06673 14.8828 9.52544 14.8828 9.99989C14.8828 10.4743 14.8145 10.9331 14.6877 11.3671H16.5653V12.2627C16.5653 12.7848 17.1964 13.0462 17.5656 12.677L19.8284 10.4142C20.0572 10.1854 20.0572 9.81438 19.8284 9.58556Z" fill="white"/>
<path d="M3.43478 8.63267V7.73701C3.43478 7.21498 2.80365 6.95357 2.43451 7.32271L0.171621 9.58553C-0.057207 9.81435 -0.057207 10.1853 0.171621 10.4142L2.43447 12.677C2.80357 13.0461 3.43475 12.7847 3.43475 12.2627V11.367H5.31229C5.18549 10.933 5.11721 10.4743 5.11721 9.99986C5.11721 9.52541 5.18549 9.0667 5.31229 8.63267H3.43478Z" fill="white"/>
<path d="M7.73713 3.4343H8.6328V5.31184C9.06682 5.18504 9.52553 5.11676 9.99998 5.11676C10.4744 5.11676 10.9331 5.18504 11.3672 5.31184V3.4343H12.2628C12.7849 3.4343 13.0463 2.80316 12.6771 2.43402L10.4143 0.171133C10.1855 -0.0576953 9.81451 -0.0576953 9.58569 0.171133L7.32283 2.43398C6.95369 2.80312 7.2151 3.4343 7.73713 3.4343Z" fill="white"/>
<path d="M12.2629 16.565H11.3672V14.6875C10.9331 14.8143 10.4744 14.8826 9.99998 14.8826C9.52553 14.8826 9.06682 14.8143 8.6328 14.6875V16.565H7.73713C7.2151 16.565 6.95369 17.1962 7.32283 17.5653L9.58569 19.8282C9.81451 20.057 10.1855 20.057 10.4143 19.8282L12.6772 17.5653C13.0463 17.1962 12.7849 16.565 12.2629 16.565Z" fill="white"/>
<path d="M10 13.7109C12.0495 13.7109 13.7109 12.0495 13.7109 10C13.7109 7.95051 12.0495 6.28906 10 6.28906C7.95051 6.28906 6.28906 7.95051 6.28906 10C6.28906 12.0495 7.95051 13.7109 10 13.7109Z" fill="white"/>
</g>
<defs>
<clipPath id="clip0_1266_329">
<rect width="20" height="20" fill="white"/>
</clipPath>
</defs>
</svg>
