<svg width="18" height="18" viewBox="0 0 18 18" fill="none" xmlns="http://www.w3.org/2000/svg">
<path fill-rule="evenodd" clip-rule="evenodd" d="M6.79467 17.6525L2.44736 17.5946L2.47731 15.3616L6.8241 15.4195L6.79467 17.6525ZM3.12046 8.31962L6.3774 11.8537C6.49022 11.9721 6.5732 12.1157 6.61948 12.2725C6.66575 12.4294 6.67399 12.595 6.6435 12.7557L6.26234 14.9692L3.00282 14.926L3.06705 14.3314C3.08664 14.17 3.04333 14.0072 2.94612 13.8768L0.123879 10.0138C0.0696538 9.94231 0.0318339 9.85973 0.0131024 9.77194C-0.0056291 9.68416 -0.0048132 9.59333 0.0154922 9.5059L1.0763 4.54922C1.09744 4.45583 1.13776 4.36785 1.19471 4.29086C1.25165 4.21387 1.32397 4.14956 1.40708 4.102C1.46546 4.06715 1.53071 4.0454 1.59831 4.03824C1.66592 4.03109 1.73427 4.0387 1.79865 4.06055C1.80772 4.06393 1.81701 4.06667 1.82646 4.06874C2.19279 4.14844 2.31267 4.52953 2.30311 4.85947L2.21715 7.76454C2.11054 7.81152 2.01227 7.87552 1.9262 7.95403L1.88893 7.98782C1.68918 8.17164 1.56575 8.42377 1.54306 8.69429C1.52038 8.9648 1.6001 9.23397 1.76645 9.44849L4.03336 12.3469C4.05111 12.3702 4.07331 12.3897 4.09867 12.4043C4.12402 12.4189 4.15203 12.4284 4.18106 12.4321C4.2101 12.4359 4.23958 12.4338 4.26781 12.426C4.29604 12.4183 4.32245 12.405 4.34552 12.387C4.36858 12.369 4.38783 12.3465 4.40217 12.321C4.4165 12.2955 4.42562 12.2674 4.42901 12.2383C4.4324 12.2092 4.42998 12.1798 4.4219 12.1516C4.41382 12.1235 4.40023 12.0972 4.38193 12.0744L2.11499 9.17578C2.01529 9.04993 1.96726 8.89083 1.98068 8.73083C1.99409 8.57083 2.06794 8.42195 2.1872 8.31446L2.22461 8.2807C2.34887 8.16776 2.51272 8.10846 2.68049 8.1157C2.84826 8.12294 3.00638 8.19614 3.12046 8.31938V8.31962ZM15.5528 17.5946L11.2055 17.6525L11.1759 15.4195L15.5228 15.3616L15.5528 17.5946ZM17.8764 10.014L15.054 13.8768C14.9567 14.0073 14.9134 14.1702 14.933 14.3317L14.9971 14.9259L11.7376 14.969L11.3566 12.7555C11.3261 12.5949 11.3343 12.4293 11.3805 12.2724C11.4268 12.1156 11.5097 11.972 11.6225 11.8536L14.8794 8.31948C14.9936 8.19624 15.1517 8.12304 15.3195 8.1158C15.4873 8.10856 15.6512 8.16786 15.7755 8.28081L15.8127 8.31456C15.9321 8.42201 16.006 8.5709 16.0194 8.73093C16.0328 8.89095 15.9847 9.05007 15.8849 9.17589L13.618 12.0745C13.5997 12.0973 13.5861 12.1236 13.578 12.1517C13.5699 12.1799 13.5675 12.2093 13.5709 12.2384C13.5743 12.2675 13.5834 12.2956 13.5977 12.3211C13.6121 12.3466 13.6313 12.3691 13.6544 12.3871C13.6775 12.4051 13.7039 12.4184 13.7321 12.4261C13.7603 12.4339 13.7898 12.436 13.8188 12.4322C13.8479 12.4285 13.8759 12.419 13.9012 12.4044C13.9266 12.3898 13.9488 12.3703 13.9665 12.347L16.2336 9.44856C16.3996 9.23394 16.4792 8.96493 16.4566 8.69456C16.4341 8.42418 16.3111 8.17206 16.1119 7.98789L16.0735 7.9541C15.9876 7.87546 15.8894 7.81145 15.7828 7.76461L15.6968 4.85954C15.6872 4.5296 15.8075 4.14851 16.1727 4.06881C16.1828 4.06667 16.1926 4.06394 16.2023 4.06062C16.2664 4.0388 16.3345 4.03121 16.4018 4.03836C16.4691 4.04552 16.5341 4.06726 16.5921 4.10207C16.6755 4.14952 16.7481 4.21377 16.8053 4.29076C16.8625 4.36775 16.9031 4.45579 16.9245 4.54929L17.9843 9.5059C18.0048 9.59332 18.0058 9.68418 17.9872 9.77201C17.9685 9.85984 17.9307 9.94247 17.8764 10.014ZM7.28855 1.8796C7.10707 1.65779 6.98913 1.39093 6.94729 1.10742C6.94558 1.09999 6.94644 1.09219 6.94973 1.0853C6.95302 1.07842 6.95854 1.07284 6.96539 1.06949C6.97143 1.06582 6.97833 1.06379 6.98539 1.06358C6.99359 1.06381 7.00143 1.06695 7.00751 1.07244L7.26749 1.27607C7.35193 1.34249 7.45626 1.37858 7.56369 1.37855C7.67113 1.37852 7.77543 1.34236 7.85984 1.27589L8.37006 0.876025C8.37645 0.870475 8.38464 0.867419 8.3931 0.867419C8.40157 0.867419 8.40975 0.870475 8.41615 0.876025L8.92395 1.27399C9.00934 1.34141 9.11516 1.37769 9.22396 1.37687C9.33275 1.37605 9.43801 1.33816 9.52238 1.26946L10.6509 0.356592C10.6557 0.352711 10.6613 0.350058 10.6674 0.348863C10.6734 0.347668 10.6796 0.347967 10.6855 0.349735C10.6914 0.351503 10.6968 0.354686 10.7012 0.359007C10.7055 0.363327 10.7088 0.368653 10.7107 0.374521C10.7971 0.648018 10.8121 0.93907 10.7543 1.22001C10.6965 1.50095 10.5679 1.76245 10.3805 1.97965C10.182 2.20338 9.92543 2.36785 9.63923 2.45489C9.75418 2.2666 9.81571 2.05058 9.81723 1.82999C9.81751 1.80092 9.81206 1.77207 9.80118 1.7451C9.7903 1.71814 9.77421 1.69359 9.75383 1.67285C9.73345 1.65211 9.70918 1.63559 9.68241 1.62424C9.65564 1.6129 9.6269 1.60694 9.59782 1.60671H9.59589C9.53755 1.60679 9.4816 1.62989 9.44019 1.67097C9.39878 1.71206 9.37526 1.76783 9.37472 1.82616C9.37371 1.97848 9.32787 2.12714 9.24293 2.25359C9.15798 2.38003 9.03769 2.47867 8.89705 2.53719C8.7565 2.47854 8.63629 2.37987 8.55136 2.25346C8.46643 2.12704 8.42052 1.97845 8.41935 1.82616C8.41887 1.76775 8.39531 1.71191 8.35382 1.6708C8.31233 1.62969 8.25627 1.60666 8.19786 1.60671H8.19596C8.13729 1.60732 8.08124 1.63116 8.04011 1.67301C7.99897 1.71486 7.97611 1.77131 7.97652 1.82999C7.97868 2.0426 8.03613 2.251 8.14323 2.43468C8.05551 2.40581 7.96967 2.37153 7.8862 2.33202C7.88095 2.3292 7.87555 2.32664 7.87003 2.32436C7.64638 2.21976 7.44795 2.06811 7.2883 1.87977L7.28855 1.8796ZM7.84922 2.79594C5.74779 5.02893 4.79105 6.78867 5.00631 8.02674C5.12102 8.68592 5.56336 9.20067 6.3581 9.60005C6.50704 9.67707 6.67264 9.71627 6.8403 9.7142H11.1782C11.3476 9.71624 11.515 9.67611 11.6651 9.59741C12.4473 9.19927 12.8818 8.68687 12.9944 8.03127C13.2083 6.78133 12.2334 5.00231 10.0975 2.74412C9.9178 2.83322 9.72764 2.89945 9.53148 2.94128C9.71414 3.15824 9.81526 3.4322 9.81737 3.71581C9.81767 3.74489 9.81222 3.77374 9.80135 3.80071C9.79048 3.82768 9.77439 3.85224 9.75401 3.87298C9.73362 3.89372 9.70935 3.91024 9.68257 3.92158C9.65579 3.93292 9.62704 3.93887 9.59796 3.93908C9.59732 3.9392 9.59667 3.9392 9.59603 3.93908C9.53769 3.939 9.48174 3.91591 9.44033 3.87482C9.39892 3.83374 9.3754 3.77797 9.37486 3.71964C9.37398 3.61347 9.35138 3.5086 9.30845 3.41148C9.26553 3.31437 9.20318 3.22707 9.12525 3.15496V3.50403C9.12321 3.56136 9.09899 3.61567 9.0577 3.65551C9.01642 3.69535 8.96128 3.71762 8.90391 3.71762C8.84653 3.71762 8.7914 3.69535 8.75011 3.65551C8.70882 3.61567 8.68461 3.56136 8.68256 3.50403V3.14346C8.60074 3.2157 8.53504 3.30435 8.48974 3.40365C8.44443 3.50295 8.42053 3.61067 8.41959 3.71981C8.41906 3.7782 8.39548 3.83401 8.35401 3.87511C8.31253 3.91621 8.2565 3.93926 8.19811 3.93926C8.19748 3.93933 8.19684 3.93933 8.19621 3.93926C8.13751 3.93872 8.08143 3.9149 8.04028 3.87304C7.99913 3.83117 7.97629 3.77468 7.97677 3.71598C7.97907 3.42669 8.08404 3.14762 8.27296 2.92852C8.12845 2.89549 7.98677 2.85119 7.84922 2.79594ZM8.77857 7.90893C8.53332 7.81988 8.33305 7.63774 8.22121 7.40201C8.1961 7.34966 8.19256 7.28954 8.21134 7.2346C8.23012 7.17966 8.26972 7.13429 8.32162 7.10826C8.37352 7.08223 8.43356 7.07762 8.48883 7.09542C8.54409 7.11323 8.59015 7.15202 8.6171 7.20345C8.65561 7.28267 8.71067 7.35269 8.77857 7.40879V6.84689C8.54225 6.75626 8.29693 6.57352 8.30245 6.10471C8.30272 5.9618 8.34925 5.82282 8.43507 5.70855C8.52089 5.59428 8.6414 5.51086 8.77857 5.47077V5.30336C8.77751 5.27363 8.78245 5.24399 8.7931 5.21621C8.80375 5.18843 8.81988 5.16308 8.84054 5.14167C8.8612 5.12026 8.88596 5.10323 8.91334 5.0916C8.94072 5.07998 8.97017 5.07398 8.99992 5.07398C9.02967 5.07398 9.05911 5.07998 9.0865 5.0916C9.11388 5.10323 9.13864 5.12026 9.1593 5.14167C9.17996 5.16308 9.19609 5.18843 9.20673 5.21621C9.21738 5.24399 9.22232 5.27363 9.22126 5.30336V5.45453C9.35422 5.48372 9.47704 5.54768 9.57717 5.63989C9.6773 5.7321 9.75115 5.84924 9.79118 5.97934C9.80764 6.03467 9.80186 6.09424 9.77505 6.14536C9.74825 6.19649 9.70254 6.23513 9.64767 6.25305C9.5928 6.27097 9.53309 6.26677 9.48128 6.24133C9.42946 6.21588 9.38962 6.17122 9.37025 6.11684C9.34585 6.03695 9.29279 5.9689 9.22126 5.92576V6.51344C9.47551 6.58494 9.80369 6.73077 9.79677 7.24117C9.79223 7.59024 9.57645 7.86467 9.24703 7.94036C9.23866 7.94229 9.2298 7.94387 9.22126 7.9456V8.08914C9.21922 8.14648 9.195 8.20079 9.15372 8.24063C9.11243 8.28047 9.05729 8.30273 8.99992 8.30273C8.94254 8.30273 8.88741 8.28047 8.84612 8.24063C8.80483 8.20079 8.78062 8.14648 8.77857 8.08914V7.90886V7.90893ZM9.35447 7.23516C9.35222 7.37663 9.28658 7.44676 9.22133 7.48174V6.97936C9.32455 7.02426 9.35637 7.08585 9.35447 7.23516ZM8.74525 6.10981C8.7445 6.06723 8.7561 6.02535 8.77864 5.98922V6.31375C8.75128 6.24945 8.73982 6.17951 8.74525 6.10984V6.10981ZM9.00006 8.90884C8.56245 8.90882 8.13467 8.77903 7.77082 8.5359C7.40697 8.29276 7.12338 7.94718 6.95593 7.54288C6.78848 7.13857 6.74468 6.69369 6.83006 6.26449C6.91545 5.83528 7.12619 5.44104 7.43564 5.13161C7.74508 4.82218 8.13934 4.61146 8.56854 4.52609C8.99775 4.44072 9.44263 4.48455 9.84693 4.65202C10.2512 4.81949 10.5968 5.10309 10.8399 5.46695C11.083 5.83082 11.2128 6.2586 11.2128 6.69621C11.2121 7.28285 10.9788 7.84526 10.5639 8.26006C10.1491 8.67487 9.58669 8.90819 9.00006 8.90884ZM9.00006 4.92627C9.35011 4.92631 9.6923 5.03014 9.98334 5.22465C10.2744 5.41915 10.5012 5.69559 10.6351 6.01901C10.7691 6.34242 10.8041 6.6983 10.7358 7.04162C10.6675 7.38494 10.4989 7.7003 10.2514 7.94781C10.0038 8.19533 9.68845 8.36388 9.34512 8.43216C9.00179 8.50044 8.64592 8.46538 8.32251 8.33141C7.99911 8.19744 7.72269 7.97058 7.52822 7.67952C7.33374 7.38846 7.22994 7.04627 7.22994 6.69621C7.23045 6.22692 7.41712 5.777 7.74897 5.44518C8.08083 5.11336 8.53077 4.92674 9.00006 4.92627ZM11.1209 1.56094C11.0242 1.92614 10.8585 2.3252 10.6238 2.75812C10.6577 2.76215 10.692 2.76635 10.7268 2.77074L10.7262 2.77031C11.028 2.786 11.3225 2.86828 11.5887 3.01125C11.8548 3.15421 12.0861 3.35433 12.2658 3.59722C12.283 3.62058 12.3048 3.6403 12.3297 3.65527C12.3546 3.67023 12.3822 3.68014 12.4109 3.68443C12.4397 3.68872 12.469 3.68731 12.4972 3.68028C12.5254 3.67324 12.5519 3.66072 12.5753 3.64344C12.5986 3.62615 12.6183 3.60443 12.6333 3.57952C12.6483 3.55461 12.6582 3.527 12.6625 3.49826C12.6668 3.46952 12.6653 3.44022 12.6583 3.41202C12.6513 3.38383 12.6388 3.3573 12.6215 3.33394C12.2348 2.81111 11.6588 2.46033 11.0169 2.3566C11.4089 2.04335 11.6764 1.58049 11.7225 1.08158C11.7263 1.05206 11.7241 1.02207 11.7161 0.993406C11.7081 0.964739 11.6944 0.937985 11.6758 0.914741C11.6572 0.891497 11.6341 0.872241 11.6079 0.858123C11.5817 0.844006 11.5529 0.835316 11.5232 0.832574C11.4936 0.829831 11.4637 0.833092 11.4354 0.842162C11.407 0.851232 11.3808 0.865924 11.3582 0.885361C11.3357 0.904798 11.3173 0.928581 11.3041 0.955289C11.291 0.981996 11.2834 1.01108 11.2817 1.0408C11.2639 1.22328 11.2092 1.40024 11.1209 1.56094Z" fill="white"/>
</svg>
