<svg width="22" height="22" viewBox="0 0 22 22" fill="none" xmlns="http://www.w3.org/2000/svg">
<path d="M7.41523 1.56352C6.53685 0.0596285 4.60562 -0.447415 3.10173 0.43097C1.59784 1.30936 1.09079 3.24058 1.96918 4.74447C2.64268 5.89753 3.9694 6.50143 5.28128 6.252C4.71705 4.3752 5.62941 2.37065 7.41523 1.56352Z" fill="white"/>
<path d="M15.7071 12.1914C13.7573 12.1914 12.1766 13.7721 12.1766 15.7219C12.1766 17.6717 13.7573 19.2523 15.7071 19.2523C17.6569 19.2523 19.2376 17.6717 19.2376 15.7219C19.2354 13.7729 17.656 12.1936 15.7071 12.1914ZM15.7071 18.4678C14.1906 18.4678 12.9612 17.2384 12.9612 15.7219C12.9612 14.2053 14.1906 12.976 15.7071 12.976C17.2236 12.976 18.453 14.2054 18.453 15.7219C18.4511 17.2376 17.2228 18.4658 15.7071 18.4678Z" fill="white"/>
<path d="M15.7071 17.6835C16.7904 17.6835 17.6685 16.8054 17.6685 15.7221C17.6685 14.6389 16.7904 13.7607 15.7071 13.7607C14.6239 13.7607 13.7457 14.6389 13.7457 15.7221C13.7457 16.8054 14.6239 17.6835 15.7071 17.6835Z" fill="white"/>
<path d="M20.887 14.7655C20.7696 14.7186 20.682 14.618 20.6517 14.4953C20.5297 14.0015 20.3338 13.529 20.0707 13.0937C20.0057 12.9857 19.9965 12.853 20.046 12.7371L20.5003 11.6733C20.3904 11.5387 20.2677 11.4073 20.1421 11.2786C20.0201 11.1609 19.8887 11.0369 19.7499 10.9232L18.6907 11.3814C18.5748 11.431 18.4421 11.4218 18.3341 11.3567C17.899 11.0949 17.4269 10.9003 16.9337 10.7792C16.811 10.749 16.7103 10.6613 16.6635 10.5439L16.2351 9.46907C15.8828 9.43739 15.5283 9.43739 15.176 9.46907L14.7508 10.5439C14.7039 10.6613 14.6032 10.749 14.4805 10.7792C13.9868 10.9006 13.5143 11.0958 13.0789 11.3582C12.9709 11.4233 12.8382 11.4325 12.7223 11.383L11.6585 10.9287C11.5239 11.0385 11.3925 11.1613 11.2638 11.2868C11.1461 11.4088 11.0222 11.5403 10.9084 11.6791L11.3666 12.7382C11.4162 12.8542 11.407 12.9868 11.3419 13.0948C11.0801 13.53 10.8855 14.0021 10.7645 14.4952C10.7342 14.618 10.6466 14.7186 10.5291 14.7655L9.45429 15.1938C9.4376 15.3693 9.42974 15.5455 9.43075 15.7218C9.43075 15.9211 9.43861 16.0953 9.45429 16.2549L10.5291 16.6782C10.6466 16.7251 10.7342 16.8257 10.7645 16.9484C10.8859 17.4421 11.0811 17.9146 11.3434 18.3501C11.4085 18.458 11.4177 18.5907 11.3682 18.7066L10.9139 19.7705C11.0237 19.905 11.1465 20.0364 11.2721 20.1651C11.3941 20.2828 11.5255 20.4068 11.6643 20.5205L12.7235 20.0623C12.772 20.0414 12.8244 20.0306 12.8772 20.0306C12.9487 20.0306 13.0189 20.0501 13.08 20.0871C13.5149 20.35 13.9868 20.5458 14.48 20.668C14.6028 20.6983 14.7034 20.7859 14.7503 20.9034L15.1786 21.9763C15.531 22.0079 15.8854 22.0079 16.2378 21.9763L16.661 20.9034C16.7079 20.7859 16.8085 20.6983 16.9313 20.668C17.426 20.5457 17.8993 20.3494 18.3352 20.0855C18.4432 20.0204 18.5759 20.0113 18.6918 20.0608L19.7556 20.515C19.8902 20.4052 20.0216 20.2824 20.1503 20.1569C20.268 20.0349 20.392 19.9035 20.5057 19.7646L20.0475 18.7055C19.9979 18.5896 20.0071 18.4569 20.0722 18.3489C20.3352 17.9141 20.531 17.4421 20.6532 16.9489C20.6835 16.8262 20.7711 16.7255 20.8886 16.6787L21.9614 16.2503C21.9776 16.0747 21.985 15.8983 21.9834 15.7219C21.9834 15.5227 21.9756 15.3485 21.9599 15.1888L20.887 14.7655ZM15.7071 20.0369C13.324 20.0369 11.3921 18.1049 11.3921 15.7218C11.3921 13.3387 13.324 11.4068 15.7071 11.4068C18.0902 11.4068 20.0221 13.3387 20.0221 15.7218C20.0193 18.1038 18.089 20.0341 15.7071 20.0369Z" fill="white"/>
<path d="M13.785 10.177C13.889 10.1409 13.9906 10.0986 14.0989 10.0684L14.4542 9.17788C14.5631 8.90638 14.8136 8.71768 15.1046 8.68793C15.5092 8.65185 15.9161 8.65185 16.3207 8.68793C16.6083 8.71993 16.855 8.90762 16.9624 9.17631L17.3186 10.0684C17.5666 10.1409 17.8096 10.2298 18.0459 10.3343C17.8946 8.50424 16.3667 7.09514 14.5303 7.09219H13.3535C13.0631 7.09173 12.7736 7.05882 12.4905 6.99414C12.1845 7.55736 11.7462 8.03769 11.2133 8.39377C12.2632 8.64601 13.1807 9.28218 13.785 10.177Z" fill="white"/>
<path d="M13.3535 6.30761C15.0867 6.31014 16.4938 4.90719 16.4963 3.17401C16.4988 1.44082 15.0959 0.0337816 13.3627 0.0312533C12.255 0.0296444 11.2285 0.612124 10.6617 1.56388C12.4476 2.37101 13.3599 4.37556 12.7957 6.25231C12.9796 6.28734 13.1663 6.30586 13.3535 6.30761Z" fill="white"/>
<path d="M10.7108 10.7321C10.8622 10.5842 11.0097 10.4469 11.1647 10.3195C11.3892 10.1318 11.701 10.0882 11.9684 10.2072L12.8511 10.5842C12.9158 10.5482 12.9844 10.5215 13.0503 10.4877C12.3854 9.58808 11.3341 9.05607 10.2154 9.05322H7.86176C5.91283 9.05538 4.33346 10.6348 4.3313 12.5837V14.9373C4.3313 15.3706 4.68255 15.7219 5.11586 15.7219H8.64632C8.64632 15.4971 8.65496 15.2974 8.6734 15.1119C8.70406 14.8231 8.8918 14.5748 9.16136 14.4666L10.0534 14.1105C10.1765 13.6771 10.3494 13.2594 10.5684 12.8658L10.1911 11.9828C10.072 11.7126 10.1177 11.3982 10.3088 11.1731C10.4323 11.0243 10.5684 10.8769 10.7108 10.7321Z" fill="white"/>
<path d="M9.03847 8.26859C10.7716 8.26859 12.1767 6.86357 12.1767 5.13039C12.1767 3.39721 10.7716 1.99219 9.03847 1.99219C7.30529 1.99219 5.90027 3.39721 5.90027 5.13039C5.90027 6.86357 7.30529 8.26859 9.03847 8.26859Z" fill="white"/>
<path d="M0.800751 13.7604H3.54665V12.5835C3.55005 10.5881 4.91994 8.85487 6.86059 8.39053C6.32904 8.03491 5.89183 7.55554 5.5865 6.99365C5.30337 7.05833 5.0139 7.09125 4.72351 7.09171H3.54669C1.59777 7.09387 0.0183959 8.67324 0.0162354 10.6222V12.9758C0.0161894 13.4091 0.367442 13.7604 0.800751 13.7604Z" fill="white"/>
</svg>
