<svg width="18" height="18" viewBox="0 0 18 18" fill="none" xmlns="http://www.w3.org/2000/svg">
<g clip-path="url(#clip0_1266_353)">
<path d="M17.4375 8.15625V9.84375C17.4373 10.0675 17.3483 10.2819 17.1901 10.4401C17.0319 10.5983 16.8175 10.6873 16.5938 10.6875H15.3912C15.2402 11.2612 15.0119 11.8118 14.7125 12.3239L15.5638 13.1777C15.7208 13.336 15.809 13.55 15.8089 13.7731C15.8089 13.9961 15.7206 14.2101 15.5635 14.3683L14.3682 15.5635C14.2079 15.7169 13.9946 15.8025 13.7727 15.8025C13.5509 15.8025 13.3376 15.7169 13.1773 15.5635L12.3239 14.7125C11.8118 15.0119 11.2612 15.2402 10.6875 15.3912V16.5938C10.6873 16.8175 10.5983 17.0319 10.4401 17.1901C10.2819 17.3483 10.0675 17.4373 9.84375 17.4375H8.15625C7.93255 17.4373 7.71808 17.3483 7.5599 17.1901C7.40172 17.0319 7.31274 16.8175 7.3125 16.5938V15.3912C6.96401 15.2989 6.62363 15.1783 6.29475 15.0307C6.25351 15.0117 6.21743 14.9831 6.18955 14.9473C6.16166 14.9115 6.1428 14.8695 6.13455 14.8249C6.12629 14.7803 6.12889 14.7343 6.14212 14.6909C6.15535 14.6475 6.17883 14.6079 6.21057 14.5754L7.40588 13.3772C7.44181 13.3413 7.4868 13.3157 7.53607 13.3033C7.58535 13.2908 7.63707 13.2919 7.68576 13.3065C8.1121 13.4346 8.55484 13.4998 9 13.5C9.89002 13.5 10.76 13.2361 11.5001 12.7416C12.2401 12.2471 12.8169 11.5443 13.1575 10.7221C13.4981 9.89981 13.5872 8.99501 13.4135 8.12209C13.2399 7.24918 12.8113 6.44736 12.182 5.81802C11.5526 5.18868 10.7508 4.7601 9.87791 4.58647C9.00499 4.41283 8.10019 4.50195 7.27792 4.84254C6.45566 5.18314 5.75285 5.75991 5.25839 6.49993C4.76392 7.23995 4.5 8.10998 4.5 9C4.50041 9.44429 4.5656 9.88615 4.6935 10.3116C4.70807 10.3602 4.7092 10.4119 4.69677 10.4611C4.68434 10.5103 4.65882 10.5552 4.62291 10.5911L3.42471 11.7892C3.39231 11.821 3.35271 11.8446 3.30927 11.8579C3.26583 11.8712 3.21982 11.8738 3.17514 11.8656C3.13046 11.8574 3.08842 11.8385 3.05257 11.8106C3.01672 11.7827 2.98812 11.7465 2.96919 11.7052C2.82169 11.3763 2.70117 11.036 2.60884 10.6875H1.40625C1.18255 10.6873 0.968079 10.5983 0.809898 10.4401C0.651717 10.2819 0.562744 10.0675 0.5625 9.84375V8.15625C0.562744 7.93255 0.651717 7.71808 0.809898 7.5599C0.968079 7.40172 1.18255 7.31274 1.40625 7.3125H2.60884C2.75979 6.73872 2.98811 6.18815 3.28753 5.67595L2.43622 4.82231C2.27915 4.66397 2.19104 4.44996 2.1911 4.22693C2.19115 4.0039 2.27936 3.78994 2.4365 3.63167L3.63181 2.43649C3.79212 2.28314 4.00542 2.19754 4.22727 2.19754C4.44912 2.19754 4.66242 2.28314 4.82273 2.43649L5.67609 3.28753C6.18823 2.98809 6.73876 2.75976 7.3125 2.60884V1.40625C7.31274 1.18255 7.40172 0.968079 7.5599 0.809898C7.71808 0.651717 7.93255 0.562744 8.15625 0.5625H9.84375C10.0675 0.562744 10.2819 0.651717 10.4401 0.809898C10.5983 0.968079 10.6873 1.18255 10.6875 1.40625V2.60884C11.2612 2.75976 11.8118 2.98809 12.3239 3.28753L13.1777 2.43622C13.338 2.28302 13.5513 2.19756 13.7731 2.19761C13.9948 2.19766 14.208 2.28323 14.3683 2.4365L15.5635 3.63181C15.7207 3.79012 15.8089 4.00417 15.8089 4.22727C15.8089 4.45037 15.7207 4.66442 15.5635 4.82273L14.7125 5.67595C15.0119 6.18815 15.2402 6.73872 15.3912 7.3125H16.5938C16.8175 7.31274 17.0319 7.40172 17.1901 7.5599C17.3483 7.71808 17.4373 7.93255 17.4375 8.15625ZM12.2037 7.5645C12.1881 7.51944 12.1613 7.47906 12.1259 7.44712C12.0904 7.41518 12.0475 7.3927 12.0011 7.38178C11.9546 7.37087 11.9062 7.37186 11.8602 7.38467C11.8143 7.39747 11.7723 7.42168 11.7382 7.45505L10.4584 8.73496L9.56346 8.43655L9.26518 7.54157L10.545 6.26181C10.5783 6.22771 10.6025 6.18574 10.6154 6.13978C10.6282 6.09383 10.6292 6.04538 10.6182 5.99894C10.6073 5.9525 10.5848 5.90957 10.5529 5.87413C10.5209 5.8387 10.4806 5.81191 10.4355 5.79626C9.95384 5.63366 9.43708 5.60485 8.94033 5.7129C8.44358 5.82095 7.98548 6.0618 7.61488 6.40978C7.24427 6.75776 6.97507 7.1998 6.83599 7.68877C6.6969 8.17773 6.69314 8.69528 6.82512 9.18622L0.99907 15.0123C0.735357 15.276 0.587205 15.6337 0.587205 16.0066C0.587205 16.3796 0.735357 16.7372 0.99907 17.0009C1.26278 17.2647 1.62045 17.4128 1.9934 17.4128C2.36635 17.4128 2.72402 17.2647 2.98773 17.0009L8.81378 11.1749C9.30472 11.3069 9.82227 11.3031 10.3112 11.164C10.8002 11.0249 11.2423 10.7557 11.5902 10.3851C11.9382 10.0145 12.1791 9.55642 12.2871 9.05967C12.3952 8.56292 12.3664 8.04616 12.2037 7.5645Z" fill="white"/>
</g>
<defs>
<clipPath id="clip0_1266_353">
<rect width="18" height="18" fill="white"/>
</clipPath>
</defs>
</svg>
