<svg width="22" height="30" viewBox="0 0 22 30" fill="none" xmlns="http://www.w3.org/2000/svg">
<path d="M17.1944 17.9592C17.4193 19.242 17.514 19.5099 17.5436 20.1838C17.5791 20.9064 17.6442 21.3935 17.6324 21.832C17.6206 22.1892 17.3364 23.3746 16.0282 25.0796C14.8798 26.5816 13.9267 27.0606 13.5952 27.0768C13.3052 27.0931 13.1927 26.9713 12.5001 26.8576C11.6595 26.7196 10.6354 26.5085 9.69419 25.997C8.67009 25.4449 7.79991 24.292 7.32042 23.6831C6.58047 22.7575 4.97625 20.2325 4.34877 19.2907C3.62657 18.2353 1.50735 14.9471 0.980499 13.9809C0.518768 13.1366 0.572045 12.2354 0.956821 11.7239C1.44223 11.0743 1.99276 11.391 2.34793 11.8132C2.83926 12.3977 3.89888 13.8186 4.50268 14.5655C5.10648 15.3124 7.29082 18.0242 7.29082 18.0242C7.29082 18.0242 7.91238 16.5709 8.65825 15.4505C9.59356 14.0378 10.3927 13.1934 10.3927 13.1934C10.3927 13.1934 9.33901 11.9593 7.87686 10.0757C6.42064 8.19211 5.24263 6.63326 4.94665 6.25167C4.56779 5.77265 3.93439 4.75778 4.63883 3.6942C5.36694 2.61438 6.11874 3.40192 6.54495 3.92153C6.93564 4.38431 8.53394 6.35722 9.90138 8.15963C12.358 11.391 13.8024 11.8456 13.8024 11.8456L16.4544 15.7671L17.1944 17.9592Z" fill="#FFCE00"/>
<path d="M17.1944 17.9592C17.4193 19.242 17.514 19.5099 17.5436 20.1838C17.5791 20.9064 17.6442 21.3935 17.6324 21.832C17.6206 22.1892 17.3364 23.3746 16.0282 25.0796C14.8798 26.5816 13.9267 27.0606 13.5952 27.0768C13.3052 27.0931 13.1927 26.9713 12.5001 26.8576C11.6595 26.7196 10.6354 26.5085 9.69419 25.997C8.67009 25.4449 7.79991 24.292 7.32042 23.6831C6.58047 22.7575 4.97625 20.2325 4.34877 19.2907C3.62657 18.2353 1.50735 14.9471 0.980499 13.9809C0.518768 13.1366 0.572045 12.2354 0.956821 11.7239C1.44223 11.0743 1.99276 11.391 2.34793 11.8132C2.83926 12.3977 3.89888 13.8186 4.50268 14.5655C5.10648 15.3124 7.29082 18.0242 7.29082 18.0242C7.29082 18.0242 7.91238 16.5709 8.65825 15.4505C9.59356 14.0378 10.3927 13.1934 10.3927 13.1934C10.3927 13.1934 9.33901 11.9593 7.87686 10.0757C6.42064 8.19211 5.24263 6.63326 4.94665 6.25167C4.56779 5.77265 3.93439 4.75778 4.63883 3.6942C5.36694 2.61438 6.11874 3.40192 6.54495 3.92153C6.93564 4.38431 8.53394 6.35722 9.90138 8.15963C12.358 11.391 13.8024 11.8456 13.8024 11.8456L16.4544 15.7671L17.1944 17.9592Z" fill="#FFCE00"/>
<path d="M17.1944 17.9592C17.4193 19.242 17.4903 19.5099 17.5199 20.1838C17.5555 20.9064 17.6442 21.3935 17.6265 21.832C17.6147 22.1892 17.3305 23.3746 16.0223 25.0796C14.8739 26.5816 13.9208 27.0606 13.5893 27.0768C13.2992 27.0931 13.1868 26.9713 12.4942 26.8576C11.6536 26.7196 10.6295 26.5085 9.68827 25.997C8.66418 25.4449 7.79399 24.292 7.3145 23.6831C6.57455 22.7575 4.97033 20.2325 4.34285 19.2907C3.62657 18.2353 1.50735 14.9471 0.980499 13.9809C0.518768 13.1366 0.572045 12.2354 0.956821 11.7239C1.44223 11.0743 1.99276 11.391 2.34793 11.8132C2.83926 12.3977 3.89888 13.8186 4.50268 14.5655C5.10648 15.3124 7.29082 18.0242 7.29082 18.0242C7.29082 18.0242 7.91238 16.5709 8.65825 15.4505C9.59356 14.0378 10.3927 13.1934 10.3927 13.1934C10.3927 13.1934 9.33901 11.9593 7.87686 10.0757C6.42064 8.19211 5.24263 6.63326 4.94665 6.25167C4.56779 5.77265 3.93439 4.75778 4.63883 3.6942C5.36694 2.61438 6.11874 3.40192 6.54495 3.92153C6.93564 4.38431 8.53394 6.35722 9.90138 8.15963C12.358 11.391 13.8024 11.8456 13.8024 11.8456L16.4544 15.7671L17.1944 17.9592Z" fill="#FFCE00"/>
<path d="M1.15823 8.13484C0.578106 8.99545 1.028 9.97785 1.43053 10.5462C1.78571 11.0577 2.28296 11.7397 3.08211 12.7627C4.03517 13.9805 7.31464 18.0887 7.31464 18.0887C7.31464 18.0887 7.56919 17.4311 7.94804 16.7328C8.32098 16.0346 8.68208 15.4663 8.68208 15.4663C8.68208 15.4663 3.30113 8.71129 2.85716 8.18355C2.47239 7.72889 1.77387 7.20928 1.15823 8.13484Z" fill="#FFCE00"/>
<path d="M2.13482 4.89506C1.54878 5.75567 1.95131 6.77866 2.34793 7.35511C2.70311 7.8666 3.20627 8.56483 3.99359 9.59594C4.93481 10.8219 8.67009 15.5796 8.67009 15.5796C8.67009 15.5796 9.02527 14.9869 9.487 14.3861C9.96057 13.7772 10.4578 13.2332 10.4578 13.2332C10.4578 13.2332 4.331 5.46339 3.89295 4.92753C3.50818 4.47287 2.7623 3.98573 2.13482 4.89506Z" fill="#FFCE00"/>
<path d="M12.5179 12.9409C12.4705 13.9477 11.772 14.6459 11.8785 16.4483C11.9259 17.3008 12.506 18.4862 12.506 18.4862L14.1813 16.2534L15.8151 14.4348L13.8083 11.8448C13.8083 11.8448 12.9441 11.5688 11.4109 9.95312C11.4938 10.0424 12.6067 11.0573 12.5179 12.9409Z" fill="#F7B208"/>
<path d="M2.19994 6.01562C2.01051 5.13066 2.53144 4.5055 2.54328 4.48926C2.40713 4.57045 2.26505 4.70035 2.13482 4.89521C1.54878 5.75582 1.95131 6.77881 2.34793 7.35525C2.70311 7.86675 3.20627 8.56498 3.99359 9.59609C4.74538 10.5785 7.27306 13.8017 8.26756 15.0602C8.51618 15.3768 8.21428 15.7584 8.21428 15.7584C8.21428 15.7584 8.78848 15.3768 8.97791 15.0926L9.47516 13.9316C9.47516 13.9316 8.824 14.7273 8.26756 14.0615C7.80582 13.5175 7.10139 12.6082 6.85276 12.2916C6.59822 11.9831 6.05361 11.3823 5.63924 10.8708C5.23079 10.3593 4.994 10.0589 4.40204 9.31192C3.88111 8.67053 3.35427 7.91546 3.153 7.63942C2.72678 7.04673 2.33609 6.65702 2.19994 6.01562Z" fill="#F7B208"/>
<path d="M1.20559 8.88977C1.14047 8.15094 1.50157 7.76123 1.50157 7.76123C1.38318 7.84242 1.2707 7.9642 1.15823 8.1347C0.578106 8.99531 1.028 9.97771 1.43053 10.546C1.78571 11.0575 2.28296 11.7395 3.08211 12.7625C3.71551 13.5744 5.37892 15.661 6.42078 16.9681C6.61613 17.2117 6.78779 17.4309 6.92987 17.6014C7.17257 17.9018 6.9713 18.5595 6.9713 18.5595C6.9713 18.5595 7.66982 16.7895 7.82373 16.4566C7.82373 16.4566 7.55143 16.8951 7.29688 16.8951C7.04826 16.9032 6.97722 16.822 6.51549 16.2618C6.05376 15.7016 5.88209 15.2632 5.35525 14.5974C4.8284 13.9316 3.75695 12.73 3.2005 12.0805C2.86308 11.6908 2.55526 11.0981 1.95738 10.4567C1.56076 10.0427 1.2707 9.60424 1.20559 8.88977Z" fill="#F7B208"/>
<path d="M16.0223 24.6727C15.2942 25.5902 14.4181 26.5158 13.6663 26.5888C13.0033 26.6538 12.8553 26.5076 12.1094 26.2965C11.4642 26.1098 10.6591 26.0043 9.74749 25.4278C9.14369 25.0462 8.39781 24.3805 7.63418 23.3899C6.34962 21.7174 5.54455 20.321 4.39614 18.6647C3.75091 17.731 1.19955 14.045 0.921324 12.7703C0.767414 12.0396 1.15811 11.52 1.15811 11.52C1.09299 11.5769 1.02196 11.6418 0.956842 11.7311C0.577986 12.2426 0.518789 13.1438 0.98052 13.9882C1.50145 14.9543 3.62067 18.2425 4.33695 19.3142C4.96443 20.256 6.56865 22.781 7.3086 23.7066C7.78809 24.3074 8.65828 25.4684 9.68237 26.0205C10.6295 26.532 11.6477 26.735 12.4883 26.8811C13.1868 26.9948 13.2933 27.1166 13.5834 27.1003C13.9208 27.076 14.868 26.5969 16.0164 25.103C16.8274 24.0395 17.2477 23.187 17.4489 22.6024C17.4608 22.5862 16.7031 23.8121 16.0223 24.6727Z" fill="#F7B208"/>
<path d="M6.79363 19.5496C6.86466 19.5739 7.36191 17.877 8.90102 15.5875C10.6651 12.957 11.7247 12.2912 11.7247 12.2019C11.7247 12.1126 10.3572 12.4455 8.58727 15.1572C6.9357 17.666 6.72259 19.5252 6.79363 19.5496Z" fill="#F7B208"/>
<path d="M4.94681 3.35254C4.84617 3.43373 4.74554 3.54739 4.64491 3.70165C3.93455 4.75712 4.57387 5.77199 4.95273 6.25913C5.24871 6.64072 6.42671 8.19144 7.88886 10.075C8.77089 11.2036 9.499 12.1048 9.94297 12.6406C10.1738 12.9167 10.2034 13.0953 10.0258 13.3308L11.1802 12.3889C11.1802 12.3889 10.7303 12.6163 10.2804 12.3402C10.0495 12.1941 9.71211 11.7557 9.45164 11.439C9.06095 10.9681 8.69985 10.4404 8.48082 10.1644C8.21444 9.82336 7.88294 9.25503 7.21994 8.43501C6.62798 7.70431 6.29648 7.33083 5.78148 6.70567C5.26647 6.0318 4.63307 5.31733 4.56795 4.72464C4.46732 3.86403 4.91129 3.40125 4.94681 3.35254Z" fill="#F7B208"/>
<path d="M12.4111 18.9735C12.4111 18.9735 12.0322 17.5364 12.2513 16.0182C12.5058 14.2564 12.9675 13.5419 13.0031 12.1779C13.0267 11.1062 12.5769 9.67727 13.009 8.03724C13.5181 6.09681 14.8026 6.34037 14.8026 6.34037C14.8026 6.34037 15.0868 7.42832 15.2584 8.14278C15.436 8.84913 15.7734 9.89648 15.9037 10.6597C16.0517 11.5365 16.0576 12.8761 16.2352 13.956C16.4187 15.1007 16.7443 16.1318 16.7443 16.1318L12.4111 18.9735Z" fill="#FFCE00"/>
<mask id="mask0_68_1994" style="mask-type:alpha" maskUnits="userSpaceOnUse" x="12" y="6" width="5" height="15">
<path d="M14.1575 6.50252C14.3351 6.39697 14.7554 6.39697 14.7554 6.39697C14.7554 6.39697 15.1875 8.28057 15.3651 9.05999C15.519 9.72575 15.6315 10.9274 15.6611 11.5769C15.6907 12.2345 15.6315 13.704 15.744 14.4347C15.8565 15.1655 16.6556 17.6823 16.8332 18.5429C17.0108 19.4036 16.851 20.4509 16.851 20.4509C16.851 20.4509 15.7795 20.8731 14.5541 20.386C13.4945 19.9638 12.7131 18.9408 12.5415 18.5835C12.4112 18.3075 12.2218 17.3089 12.4764 16.1479C12.6954 15.1573 13.2163 14.1019 13.4235 12.746C13.6248 11.3901 13.0269 10.424 13.2518 8.86514C13.4945 7.22511 13.9799 6.60807 14.1575 6.50252Z" fill="url(#paint0_linear_68_1994)"/>
</mask>
<g mask="url(#mask0_68_1994)">
<path d="M14.1575 6.50252C14.3351 6.39697 14.7554 6.39697 14.7554 6.39697C14.7554 6.39697 15.1875 8.28057 15.3651 9.05999C15.519 9.72575 15.6315 10.9274 15.6611 11.5769C15.6907 12.2345 15.6315 13.704 15.744 14.4347C15.8565 15.1655 16.6556 17.6823 16.8332 18.5429C17.0108 19.4036 16.851 20.4509 16.851 20.4509C16.851 20.4509 15.7795 20.8731 14.5541 20.386C13.4945 19.9638 12.7131 18.9408 12.5415 18.5835C12.4112 18.3075 12.2218 17.3089 12.4764 16.1479C12.6954 15.1573 13.2163 14.1019 13.4235 12.746C13.6248 11.3901 13.0269 10.424 13.2518 8.86514C13.4945 7.22511 13.9799 6.60807 14.1575 6.50252Z" fill="url(#paint1_linear_68_1994)"/>
<path d="M13.3582 12.3326C13.3701 11.1797 12.9912 10.7494 13.157 8.99569C13.2931 7.55052 14.0153 6.53564 14.0153 6.53564H13.962C13.6128 6.74674 13.2339 7.17704 13.009 8.03765C12.5769 9.67768 13.0267 11.1066 13.0031 12.1783C12.9675 13.5504 12.5058 14.2568 12.2513 16.0186C12.0322 17.5368 12.4111 18.9739 12.4111 18.9739C12.4111 18.9739 12.127 17.3582 12.3874 16.116C12.642 14.8819 13.3464 13.4855 13.3582 12.3326Z" fill="#F7B208"/>
<path d="M15.5132 9.07666C15.5132 9.07666 15.5369 9.58004 15.7026 10.8791C15.8684 12.1781 15.6257 13.5583 15.9927 15.2227C16.3597 16.8871 16.8629 17.8695 16.9813 18.6246C17.0996 19.3877 17.0641 19.883 17.2003 20.4757C17.3364 21.0765 17.5436 22.3268 17.5436 22.3268C17.7449 21.6854 17.6147 20.8573 17.5377 20.1428C17.4667 19.4771 17.5377 18.6976 17.3364 17.9345C17.2062 17.5366 16.7445 16.1402 16.7445 16.1402C16.7445 16.1402 16.4189 15.1091 16.2354 13.9643C16.0637 12.8763 16.0578 11.5367 15.9039 10.668C15.821 10.189 15.6612 9.61251 15.5132 9.07666Z" fill="#FFC200"/>
<path d="M10.8485 17.7397C10.8485 17.7397 10.3098 19.3798 10.736 20.419C11.1444 21.4176 13.1867 22.2377 13.1867 22.2377L10.369 21.6287L9.66453 21.0848L9.52246 20.5083L10.073 19.5422L10.8485 17.7397Z" fill="#FFC200"/>
<path d="M13.104 18.9336C13.104 18.9336 13.7788 19.8429 14.4951 20.2732C15.2114 20.7035 16.0283 20.7441 16.0283 20.7441C16.0283 20.7441 15.2055 21.0039 14.4359 20.4843C13.6723 19.9566 13.104 18.9336 13.104 18.9336Z" fill="#FFB600"/>
</g>
<mask id="mask1_68_1994" style="mask-type:alpha" maskUnits="userSpaceOnUse" x="0" y="11" width="7" height="10">
<path d="M1.16387 11.7964C0.78501 12.3323 1.10467 13.1604 1.31186 13.5583C2.48986 15.8559 6.17187 20.979 6.17187 20.979C6.17187 20.979 6.23107 20.021 6.43825 19.3146C6.65136 18.6083 6.91774 18.048 6.91774 18.048C6.91774 18.048 2.49578 12.1212 2.24716 11.8208C2.00445 11.5123 1.54272 11.2687 1.16387 11.7964Z" fill="url(#paint2_linear_68_1994)"/>
</mask>
<g mask="url(#mask1_68_1994)">
<path d="M1.16387 11.7964C0.78501 12.3323 1.10467 13.1604 1.31186 13.5583C2.48986 15.8559 6.17187 20.979 6.17187 20.979C6.17187 20.979 6.23107 20.021 6.43825 19.3146C6.65136 18.6083 6.91774 18.048 6.91774 18.048C6.91774 18.048 2.49578 12.1212 2.24716 11.8208C2.00445 11.5123 1.54272 11.2687 1.16387 11.7964Z" fill="url(#paint3_linear_68_1994)"/>
</g>
<mask id="mask2_68_1994" style="mask-type:alpha" maskUnits="userSpaceOnUse" x="1" y="7" width="8" height="10">
<path d="M1.46011 7.97229C1.86857 7.38773 2.59668 7.97229 2.82163 8.2321C3.18272 8.65429 6.82921 13.4039 7.16071 13.8179C7.49221 14.232 8.22033 15.0683 8.26176 15.3118C8.3032 15.5554 7.6994 16.5216 7.48037 16.7002C7.26727 16.8788 6.91209 16.5865 6.55099 16.0994C6.1603 15.5635 5.95311 15.1901 5.49138 14.573C5.05924 14.0047 3.43135 12.1617 3.12945 11.7963C2.83347 11.431 2.70323 11.163 2.37765 10.7652C2.09943 10.4242 1.76201 10.1482 1.54299 9.69351C1.34764 9.3038 1.09901 8.48379 1.46011 7.97229Z" fill="url(#paint4_linear_68_1994)"/>
</mask>
<g mask="url(#mask2_68_1994)">
<path d="M1.46011 7.97229C1.86857 7.38773 2.59668 7.97229 2.82163 8.2321C3.18272 8.65429 6.82921 13.4039 7.16071 13.8179C7.49221 14.232 8.22033 15.0683 8.26176 15.3118C8.3032 15.5554 7.6994 16.5216 7.48037 16.7002C7.26727 16.8788 6.91209 16.5865 6.55099 16.0994C6.1603 15.5635 5.95311 15.1901 5.49138 14.573C5.05924 14.0047 3.43135 12.1617 3.12945 11.7963C2.83347 11.431 2.70323 11.163 2.37765 10.7652C2.09943 10.4242 1.76201 10.1482 1.54299 9.69351C1.34764 9.3038 1.09901 8.48379 1.46011 7.97229Z" fill="url(#paint5_linear_68_1994)"/>
</g>
<mask id="mask3_68_1994" style="mask-type:alpha" maskUnits="userSpaceOnUse" x="2" y="4" width="9" height="11">
<path d="M2.4366 4.83057C2.1051 5.34207 2.22349 5.91039 2.35964 6.27575C2.49579 6.6411 2.82137 7.03081 3.19431 7.55042C3.56725 8.07004 4.51439 9.31224 4.98204 9.91304C5.53848 10.6275 6.13637 11.3582 6.92959 12.2757C7.65771 13.12 8.20232 14.0862 8.65221 14.2242C9.1021 14.3622 9.404 13.9319 9.61119 13.7046C9.81245 13.4773 10.0907 13.2905 10.0848 13.0226C10.0788 12.8846 9.47503 12.1539 8.85347 11.3826C8.29703 10.6925 7.72874 9.96988 7.5038 9.67759C7.01839 9.06867 5.65096 7.22567 5.06491 6.50308C4.57358 5.89416 3.83955 4.81433 3.38374 4.56265C3.08776 4.40839 2.73258 4.36779 2.4366 4.83057Z" fill="url(#paint6_linear_68_1994)"/>
</mask>
<g mask="url(#mask3_68_1994)">
<path d="M2.4366 4.83057C2.1051 5.34207 2.22349 5.91039 2.35964 6.27575C2.49579 6.6411 2.82137 7.03081 3.19431 7.55042C3.56725 8.07004 4.51439 9.31224 4.98204 9.91304C5.53848 10.6275 6.13637 11.3582 6.92959 12.2757C7.65771 13.12 8.20232 14.0862 8.65221 14.2242C9.1021 14.3622 9.404 13.9319 9.61119 13.7046C9.81245 13.4773 10.0907 13.2905 10.0848 13.0226C10.0788 12.8846 9.47503 12.1539 8.85347 11.3826C8.29703 10.6925 7.72874 9.96988 7.5038 9.67759C7.01839 9.06867 5.65096 7.22567 5.06491 6.50308C4.57358 5.89416 3.83955 4.81433 3.38374 4.56265C3.08776 4.40839 2.73258 4.36779 2.4366 4.83057Z" fill="url(#paint7_linear_68_1994)"/>
</g>
<mask id="mask4_68_1994" style="mask-type:alpha" maskUnits="userSpaceOnUse" x="4" y="3" width="8" height="10">
<path d="M4.88157 3.58775C5.45578 2.78397 6.19573 3.66894 6.49763 4.00182C6.60418 4.11548 7.04816 4.66757 7.52764 5.26026C8.52806 6.50246 9.18514 7.40367 9.66463 8.02071C10.15 8.64587 11.4879 10.1154 11.7483 10.5132C12.0088 10.9111 12.0147 11.317 11.8075 11.6661C11.4228 12.3319 11.0498 12.3481 10.8249 12.3562C10.5999 12.3644 10.3987 12.3562 10.0139 12.0071C9.79486 11.8041 9.06083 10.838 8.45703 9.99362C8.07817 9.46588 7.6638 8.89756 7.42109 8.58092C7.08959 8.15061 6.5805 7.55793 6.01222 6.85158C5.49129 6.21018 5.08284 5.67433 4.98221 5.52818C4.78686 5.22778 4.27185 4.44024 4.88157 3.58775Z" fill="url(#paint8_linear_68_1994)"/>
</mask>
<g mask="url(#mask4_68_1994)">
<path d="M4.88157 3.58775C5.45578 2.78397 6.19573 3.66894 6.49763 4.00182C6.60418 4.11548 7.04816 4.66757 7.52764 5.26026C8.52806 6.50246 9.18514 7.40367 9.66463 8.02071C10.15 8.64587 11.4879 10.1154 11.7483 10.5132C12.0088 10.9111 12.0147 11.317 11.8075 11.6661C11.4228 12.3319 11.0498 12.3481 10.8249 12.3562C10.5999 12.3644 10.3987 12.3562 10.0139 12.0071C9.79486 11.8041 9.06083 10.838 8.45703 9.99362C8.07817 9.46588 7.6638 8.89756 7.42109 8.58092C7.08959 8.15061 6.5805 7.55793 6.01222 6.85158C5.49129 6.21018 5.08284 5.67433 4.98221 5.52818C4.78686 5.22778 4.27185 4.44024 4.88157 3.58775Z" fill="url(#paint9_linear_68_1994)"/>
</g>
<mask id="mask5_68_1994" style="mask-type:alpha" maskUnits="userSpaceOnUse" x="7" y="21" width="9" height="6">
<path d="M11.4405 22.002C14.4595 22.6434 15.5309 24.6894 15.4776 24.9655C15.4244 25.2496 14.5719 26.3213 13.7669 26.5081C13.613 26.5487 13.3051 26.573 12.9559 26.4837C12.4172 26.3376 11.6832 26.1102 11.0557 25.9397C10.7064 25.8423 10.1796 25.6474 9.71192 25.3146C8.71742 24.6082 7.5039 23.3985 7.62821 22.8139C7.69333 22.5379 9.23835 21.5311 11.4405 22.002Z" fill="url(#paint10_linear_68_1994)"/>
</mask>
<g mask="url(#mask5_68_1994)">
<path d="M11.4405 22.002C14.4595 22.6434 15.5309 24.6894 15.4776 24.9655C15.4244 25.2496 14.5719 26.3213 13.7669 26.5081C13.613 26.5487 13.3051 26.573 12.9559 26.4837C12.4172 26.3376 11.6832 26.1102 11.0557 25.9397C10.7064 25.8423 10.1796 25.6474 9.71192 25.3146C8.71742 24.6082 7.5039 23.3985 7.62821 22.8139C7.69333 22.5379 9.23835 21.5311 11.4405 22.002Z" fill="url(#paint11_linear_68_1994)"/>
</g>
<path d="M18.7967 4.55428C19.2743 5.19877 19.6748 5.88552 20.0061 6.54057C20.3373 7.19562 20.5838 7.81898 20.7687 8.36838C20.9536 8.90721 21.0691 9.37209 21.1308 9.69962C21.1924 10.0271 21.1924 10.2173 21.1462 10.249C21.0999 10.2807 21.0075 10.1328 20.8688 9.86866C20.7302 9.60453 20.553 9.20304 20.3142 8.7276C20.0831 8.25216 19.7981 7.6922 19.4591 7.10053C19.1202 6.50887 18.7273 5.88552 18.2805 5.27272C17.8337 4.65993 17.3792 4.1211 16.9479 3.65622C16.5165 3.19135 16.1082 2.80043 15.7615 2.48347C15.4149 2.1665 15.1222 1.91294 14.9296 1.72276C14.737 1.53258 14.6292 1.4058 14.6523 1.34241C14.6754 1.27901 14.814 1.28958 15.0528 1.36354C15.2916 1.44806 15.6229 1.60654 16.0235 1.84954C16.4163 2.10311 16.8785 2.45177 17.3561 2.89552C17.826 3.34983 18.319 3.89923 18.7967 4.55428Z" fill="#667CFF"/>
<path d="M3.52895 25.5056C3.05134 24.8611 2.65077 24.1744 2.31952 23.5193C1.98828 22.8643 1.74177 22.2409 1.55689 21.6915C1.37201 21.1527 1.25646 20.6878 1.19484 20.3603C1.13321 20.0328 1.13321 19.8426 1.17943 19.8109C1.22565 19.7792 1.31809 19.9271 1.45675 20.1912C1.59541 20.4554 1.78029 20.8569 2.01139 21.3323C2.24249 21.8077 2.52751 22.3677 2.86646 22.9594C3.20541 23.551 3.59828 24.1744 4.04507 24.7872C4.49186 25.4 4.94636 25.9388 5.37774 26.4037C5.80913 26.8686 6.21741 27.2595 6.56406 27.5764C6.91071 27.8934 7.20343 28.147 7.39602 28.3371C7.5886 28.5273 7.69645 28.6541 7.67334 28.7175C7.65023 28.7809 7.51157 28.7703 7.27276 28.6964C7.03396 28.6118 6.70272 28.4534 6.30214 28.2104C5.90927 27.9568 5.44707 27.6187 4.96947 27.1644C4.49956 26.7101 3.99885 26.1607 3.52895 25.5056Z" fill="#667CFF"/>
<path d="M20.1601 2.82159C20.7918 3.69852 21.2617 4.60714 21.5467 5.30446C21.8317 6.01234 21.9319 6.49834 21.8471 6.5723C21.7624 6.64626 21.5005 6.2976 21.123 5.72707C20.7455 5.15654 20.2294 4.36414 19.6363 3.54004C19.0431 2.71594 18.4654 2.00806 18.0571 1.47979C17.6411 0.951522 17.3946 0.592299 17.4485 0.47608C17.5024 0.359861 17.8568 0.507776 18.3652 0.898695C18.8659 1.28961 19.5284 1.95523 20.1601 2.82159Z" fill="#667CFF"/>
<path d="M2.16538 27.2274C1.5337 26.3504 1.0561 25.4418 0.778777 24.7445C0.493754 24.0366 0.39361 23.5506 0.478347 23.4766C0.563084 23.4027 0.824997 23.7513 1.20246 24.3219C1.57992 24.8924 2.09605 25.6848 2.6892 26.5089C3.28236 27.333 3.86011 28.0409 4.26838 28.5692C4.68436 29.0974 4.93087 29.4566 4.87695 29.5729C4.82302 29.6891 4.46867 29.5412 3.96025 29.1502C3.45183 28.7593 2.79705 28.1043 2.16538 27.2274Z" fill="#667CFF"/>
<defs>
<linearGradient id="paint0_linear_68_1994" x1="14.817" y1="20.8262" x2="12.8083" y2="6.66964" gradientUnits="userSpaceOnUse">
<stop/>
<stop offset="1" stop-color="white"/>
</linearGradient>
<linearGradient id="paint1_linear_68_1994" x1="13.7857" y1="2.48933" x2="15.2202" y2="16.7976" gradientUnits="userSpaceOnUse">
<stop stop-color="#FCE953"/>
<stop offset="1" stop-color="#FCE63A"/>
</linearGradient>
<linearGradient id="paint2_linear_68_1994" x1="6.34177" y1="19.2311" x2="-0.463175" y2="14.2695" gradientUnits="userSpaceOnUse">
<stop/>
<stop offset="1" stop-color="white"/>
</linearGradient>
<linearGradient id="paint3_linear_68_1994" x1="1.11339" y1="11.4888" x2="7.803" y2="16.7774" gradientUnits="userSpaceOnUse">
<stop stop-color="#FCE953"/>
<stop offset="1" stop-color="#FCE63A"/>
</linearGradient>
<linearGradient id="paint4_linear_68_1994" x1="7.14549" y1="15.4231" x2="-0.0972879" y2="10.3908" gradientUnits="userSpaceOnUse">
<stop/>
<stop offset="1" stop-color="white"/>
</linearGradient>
<linearGradient id="paint5_linear_68_1994" x1="1.53001" y1="7.48019" x2="8.58697" y2="13.0592" gradientUnits="userSpaceOnUse">
<stop stop-color="#FCE953"/>
<stop offset="1" stop-color="#FCE63A"/>
</linearGradient>
<linearGradient id="paint6_linear_68_1994" x1="9.5271" y1="13.8206" x2="0.503531" y2="7.83195" gradientUnits="userSpaceOnUse">
<stop/>
<stop offset="1" stop-color="white"/>
</linearGradient>
<linearGradient id="paint7_linear_68_1994" x1="5.25187" y1="10.3781" x2="7.17538" y2="8.97562" gradientUnits="userSpaceOnUse">
<stop stop-color="#FCE953"/>
<stop offset="1" stop-color="#FCE63A"/>
</linearGradient>
<linearGradient id="paint8_linear_68_1994" x1="11.5397" y1="12.1107" x2="2.95764" y2="6.35118" gradientUnits="userSpaceOnUse">
<stop/>
<stop offset="1" stop-color="white"/>
</linearGradient>
<linearGradient id="paint9_linear_68_1994" x1="7.43139" y1="8.89675" x2="9.48044" y2="7.40277" gradientUnits="userSpaceOnUse">
<stop stop-color="#FCE953"/>
<stop offset="1" stop-color="#FCE63A"/>
</linearGradient>
<linearGradient id="paint10_linear_68_1994" x1="11.4527" y1="26.2866" x2="12.2476" y2="16.2397" gradientUnits="userSpaceOnUse">
<stop/>
<stop offset="1" stop-color="white"/>
</linearGradient>
<linearGradient id="paint11_linear_68_1994" x1="10.7319" y1="22.1572" x2="14.1961" y2="26.1938" gradientUnits="userSpaceOnUse">
<stop stop-color="#FCE953"/>
<stop offset="1" stop-color="#FCE63A"/>
</linearGradient>
</defs>
</svg>
